<svg xmlns="http://www.w3.org/2000/svg" viewBox="0 0 24 24"><defs><style>.cls-1{fill:none;}.cls-2{fill:#fff;}</style></defs><title>booking-icon</title><g id="Layer_2" data-name="Layer 2"><g id="Layer_1-2" data-name="Layer 1"><path class="cls-1" d="M0,0H24V24H0Z"/><path class="cls-2" d="M19,23H5a3,3,0,0,1-3-3V6A3,3,0,0,1,5,3H19a3,3,0,0,1,3,3V20A3,3,0,0,1,19,23ZM5,5A1,1,0,0,0,4,6V20a1,1,0,0,0,1,1H19a1,1,0,0,0,1-1V6a1,1,0,0,0-1-1Z"/><path class="cls-2" d="M16,7a1,1,0,0,1-1-1V2a1,1,0,0,1,2,0V6A1,1,0,0,1,16,7Z"/><path class="cls-2" d="M8,7A1,1,0,0,1,7,6V2A1,1,0,0,1,9,2V6A1,1,0,0,1,8,7Z"/><path class="cls-2" d="M21,11H3A1,1,0,0,1,3,9H21a1,1,0,0,1,0,2Z"/></g></g></svg>