<svg xmlns="http://www.w3.org/2000/svg" viewBox="0 0 117.2 139.21"><defs><style>.cls-1{fill:#f8cdba;}.cls-2{fill:#1f161e;}.cls-3{fill:#6dc9fc;}.cls-4{fill:#fa9e9f;}.cls-5,.cls-7{fill:none;stroke:#1f161e;stroke-linecap:round;stroke-miterlimit:10;}.cls-5{stroke-width:0.26px;}.cls-6{fill:#8080ff;}.cls-7{stroke-width:0.2px;}</style></defs><title>Asset 25</title><g id="Layer_2" data-name="Layer 2"><g id="Layer_1-2" data-name="Layer 1"><g id="Layer_2-2" data-name="Layer 2"><g id="Vector"><path class="cls-1" d="M108.31,59.63c.34.64,3.11,3.43,4.18,4.69s3.15,5.14,2,6A3,3,0,0,1,110.13,69a46,46,0,0,0-5-7.51C104.19,60.53,108.31,59.63,108.31,59.63Z"/><path class="cls-1" d="M12.69,8.9C11.42,8,1,0,.91,0,.11.33-.37.82.37,1.59c.28.3,1.95,1.65,3.87,3.16a3.22,3.22,0,0,0,.31,4.51A3.18,3.18,0,0,0,7.14,10a3.21,3.21,0,0,0,.75-.21l1.68,1.46,2-1.19-.33-.26Z"/><path class="cls-2" d="M43.54,115.81c.1.47,1.54,4.2,1.24,4.74-.54,1-6.43,1.83-6.76,1.61s-.61-.75-.4-1S40,120,40.3,119.75a2.68,2.68,0,0,0,.17-2.12"/><path class="cls-2" d="M75.68,54.05c2.85,1.41,40.38,73.49,40.15,74.76s-3.07,2.39-4.23,1.89-26.76-33.61-28-34.51S64.14,81.36,61,75.26,75.68,54.05,75.68,54.05Z"/><path class="cls-3" d="M71.43,50.28c1.76.61,7.21,4.53,8,9.49,2.17,14-10.26,18.83-14.86,19.46s-23.43,4.36-31,3.06c.73,2.67,6.94,26.8,10.29,33.59-.38,1.1-3.08,2.42-3.65,2.08-4.59-2.68-22-35.77-22.17-38.26C17.7,74.08,68.56,51.47,71.43,50.28Z"/><path class="cls-1" d="M52,28.34c-.08,1,5.67,1.55,5.75.42l.52-7-5.75-.41Z"/><path d="M58,26c0-.63-1.22-2.88-2.34-2.6,1.39-.38,2.18-2,2.65-1.58Z"/><circle class="cls-1" cx="53.25" cy="16.25" r="7.5"/><ellipse class="cls-4" cx="45.61" cy="16.69" rx="0.65" ry="1.25" transform="translate(25.6 60.95) rotate(-85.76)"/><ellipse class="cls-4" cx="53.45" cy="17.27" rx="0.65" ry="1.25" transform="translate(32.28 69.3) rotate(-85.76)"/><path class="cls-5" d="M48.76,15.57c-.26.32-1.56,1.62-.34,2.28"/><path class="cls-5" d="M50.81,19.67a2.15,2.15,0,0,0,1.33-.79"/><path d="M56.7,14.58c-.24-1.68-6.7-4.63-9.34-3A7.5,7.5,0,0,1,60.2,19C59.3,18.43,56.94,16.16,56.7,14.58Z"/><circle class="cls-1" cx="58.53" cy="16.25" r="1.65"/><path class="cls-6" d="M12,8.44C12.9,9,30.9,22,33.64,22.25,42.85,23,72.93,27.18,84,33.54c11.21,4.71,25.51,25.23,25.24,26.07s-4.32,3.4-5.27,3.14S88.24,47.59,86.2,46.81s-17.74-5.72-17.74-5.72c.94,1.57,4,8.37,3.87,9.4s-5.83,6.29-17.26,9.14c-1.29-.51-7.84-20-7.84-20-2.64-.72-20.31-6.88-24.6-10.83C21,27.28,7.91,12.71,7.79,11.91S12,8.44,12,8.44Z"/><path class="cls-7" d="M55.53,42.3c-1.09-.26-8.24-2.69-8.24-2.69"/><path class="cls-7" d="M59.2,26.28C60,27,66.57,36.5,68.48,41.21"/><path class="cls-2" d="M115.26,128.82a6.94,6.94,0,0,1,1.82,2.38c.69,2.87-1.75,7.88-2.26,8-1.47.23-2.35-.43-2.49-1.34s.79-2.2.69-2.81-.79-4.23-1-4.76"/></g></g></g></g></svg>