<svg xmlns="http://www.w3.org/2000/svg" viewBox="0 0 24 24"><defs><style>.cls-1{fill:none;}.cls-2{fill:#fff;}</style></defs><title>chat-icon</title><g id="Layer_2" data-name="Layer 2"><g id="Layer_1-2" data-name="Layer 1"><path class="cls-1" d="M0,0H24V24H0Z"/><path class="cls-2" d="M3,22a.84.84,0,0,1-.38-.08A1,1,0,0,1,2,21V5A3,3,0,0,1,5,2H19a3,3,0,0,1,3,3V15a3,3,0,0,1-3,3H7.41l-3.7,3.71A1,1,0,0,1,3,22ZM5,4A1,1,0,0,0,4,5V18.59l2.29-2.3A1,1,0,0,1,7,16H19a1,1,0,0,0,1-1V5a1,1,0,0,0-1-1Z"/></g></g></svg>