<svg xmlns="http://www.w3.org/2000/svg" viewBox="0 0 36 36"><defs><style>.cls-1{fill:none;}.cls-2{fill:#fff;}</style></defs><title>earning-icon</title><g id="Layer_2" data-name="Layer 2"><g id="Layer_1-2" data-name="Layer 1"><rect class="cls-1" width="36" height="36"/><path class="cls-2" d="M28.5,21V9a3,3,0,0,0-3-3H4.5a3,3,0,0,0-3,3V21a3,3,0,0,0,3,3h21A3,3,0,0,0,28.5,21Zm-3,0H4.5V9h21ZM15,10.5A4.5,4.5,0,1,0,19.5,15,4.49,4.49,0,0,0,15,10.5Zm19.5,0V27a3,3,0,0,1-3,3H6V27H31.5V10.5Z"/></g></g></svg>