<svg xmlns="http://www.w3.org/2000/svg" viewBox="0 0 30 30"><defs><style>.cls-1{fill:#039be5;}.cls-2{fill:#fff;}</style></defs><title>Asset 4</title><g id="Layer_2" data-name="Layer 2"><g id="Layer_1-2" data-name="Layer 1"><path class="cls-1" d="M15,0A15,15,0,1,0,30,15,15,15,0,0,0,15,0Z"/><path class="cls-2" d="M18,19h3.88l.61-4H18V12.88c0-1.64.54-3.09,2.07-3.09h2.46V6.34a22.76,22.76,0,0,0-3.08-.18c-3.61,0-5.72,1.91-5.72,6.25V15H10.05v4h3.71V29.81A15,15,0,0,0,16,30a15,15,0,0,0,2-.15Z"/></g></g></svg>