<svg xmlns="http://www.w3.org/2000/svg" viewBox="0 0 424 424"><defs><style>.cls-1{fill:#90d8f2;}.cls-2{fill:#fff;}.cls-3{fill:#f0bd57;}.cls-4{fill:#decdc0;}.cls-5{fill:#ef5543;}.cls-6,.cls-7{fill:#6d6762;}.cls-7{opacity:0.2;}</style></defs><title>form_illustration</title><g id="Layer_2" data-name="Layer 2"><g id="Layer_1-2" data-name="Layer 1"><circle class="cls-1" cx="212" cy="212" r="212"/><rect class="cls-2" x="103.79" y="98.21" width="190.8" height="228.96" rx="17.22" ry="17.22"/><path class="cls-3" d="M248.14,258h28.72a0,0,0,0,1,0,0V341.4a2.4,2.4,0,0,1-2.4,2.4H250.54a2.4,2.4,0,0,1-2.4-2.4V258A0,0,0,0,1,248.14,258Z" transform="translate(289.67 -97.47) rotate(45)"/><polygon class="cls-4" points="215.92 347.49 243.66 340.06 223.36 319.75 215.92 347.49"/><path class="cls-5" d="M293.61,246.09h18.72a5,5,0,0,1,5,5v23.72a0,0,0,0,1,0,0H288.61a0,0,0,0,1,0,0V251.09A5,5,0,0,1,293.61,246.09Z" transform="translate(272.9 -137.95) rotate(45)"/><rect class="cls-6" x="215.07" y="342.09" width="3" height="9.52" rx="0.94" ry="0.94" transform="translate(308.69 -51.55) rotate(45)"/><path class="cls-7" d="M319.43,256.6l-6.31-6.31L213.2,350.22l.34.34a1,1,0,0,0,1.44,0l3.84-3.84,24.84-6.66-.08-.08a2.7,2.7,0,0,0,.59-.43l58.8-58.8,16.46-16.46A5.46,5.46,0,0,0,319.43,256.6Z"/><path class="cls-1" d="M272.84,142.86H181.26a2.29,2.29,0,1,1,0-4.58h91.58a2.29,2.29,0,1,1,0,4.58Z"/><path class="cls-1" d="M172.32,119.55a2.27,2.27,0,0,0-3.23,0l-31.91,31.9-15.09-15.09a2.29,2.29,0,0,0-3.24,3.23L135,155.78a2.2,2.2,0,0,0,.44.62,2.25,2.25,0,0,0,1.62.67h.18a2.25,2.25,0,0,0,1.62-.67,2,2,0,0,0,.43-.62l33-33A2.27,2.27,0,0,0,172.32,119.55Z"/><path class="cls-1" d="M172.32,169.54a2.27,2.27,0,0,0-3.23,0l-31.91,31.9-15.09-15.1a2.29,2.29,0,0,0-3.24,3.24L135,205.77a2.2,2.2,0,0,0,.44.62,2.25,2.25,0,0,0,1.62.67h.18a2.25,2.25,0,0,0,1.62-.67,2,2,0,0,0,.43-.62l33-33A2.27,2.27,0,0,0,172.32,169.54Z"/><path class="cls-1" d="M172.32,219.14a2.29,2.29,0,0,0-3.23,0l-31.91,31.91L122.09,236a2.29,2.29,0,0,0-3.24,3.24L135,255.38a2.35,2.35,0,0,0,.44.62,2.25,2.25,0,0,0,1.62.67h.18a2.24,2.24,0,0,0,2-1.29l33-33A2.28,2.28,0,0,0,172.32,219.14Z"/><path class="cls-1" d="M272.84,193.44H181.26a2.29,2.29,0,0,1,0-4.58h91.58a2.29,2.29,0,1,1,0,4.58Z"/><path class="cls-1" d="M272.84,244H181.26a2.29,2.29,0,1,1,0-4.58h91.58a2.29,2.29,0,1,1,0,4.58Z"/></g></g></svg>