<svg xmlns="http://www.w3.org/2000/svg" viewBox="0 0 30 30"><defs><style>.cls-1{fill:#ffc107;}.cls-2{fill:#ff3d00;}.cls-3{fill:#4caf50;}.cls-4{fill:#1976d2;}</style></defs><title>Asset 5</title><g id="Layer_2" data-name="Layer 2"><g id="Layer_1-2" data-name="Layer 1"><path class="cls-1" d="M29.71,12.06H28.5V12H15v6h8.48A9,9,0,1,1,21,8.28L25.21,4a14.9,14.9,0,1,0,4.5,8Z"/><path class="cls-2" d="M1.73,8l4.93,3.61A9,9,0,0,1,21,8.28L25.21,4A15,15,0,0,0,1.73,8Z"/><path class="cls-3" d="M15,30a15,15,0,0,0,10.06-3.89l-4.65-3.93A8.9,8.9,0,0,1,15,24a9,9,0,0,1-8.46-6L1.65,21.81A15,15,0,0,0,15,30Z"/><path class="cls-4" d="M29.71,12.06H28.5V12H15v6h8.48a9.12,9.12,0,0,1-3.07,4.18h0l4.65,3.93A14.56,14.56,0,0,0,30,15,15,15,0,0,0,29.71,12.06Z"/></g></g></svg>