<svg xmlns="http://www.w3.org/2000/svg" viewBox="0 0 24 24"><defs><style>.cls-1{fill:none;}.cls-2{fill:#fff;}</style></defs><title>Asset 15</title><g id="Layer_2" data-name="Layer 2"><g id="Layer_1-2" data-name="Layer 1"><path class="cls-1" d="M0,0H24V24H0Z"/><path class="cls-1" d="M9,11h6a1,1,0,0,1,1,1v9h3a1,1,0,0,0,1-1V9.49L12,3.27,4,9.49V20a1,1,0,0,0,1,1H8V12A1,1,0,0,1,9,11Z"/><rect class="cls-1" x="10" y="13" width="4" height="8"/><path class="cls-2" d="M21.61,8.21l-9-7a1,1,0,0,0-1.22,0l-9,7A1,1,0,0,0,2,9V20a3,3,0,0,0,3,3H9a1,1,0,0,1-1-1V21H5a1,1,0,0,1-1-1V9.49l8-6.22,8,6.22V20a1,1,0,0,1-1,1H16v1a1,1,0,0,1-1,1h4a3,3,0,0,0,3-3V9A1,1,0,0,0,21.61,8.21Z"/><path class="cls-2" d="M10,13h4v8h2V12a1,1,0,0,0-1-1H9a1,1,0,0,0-1,1v9h2Z"/><path class="cls-2" d="M10,22V21H8v1a1,1,0,0,0,2,0Z"/><path class="cls-2" d="M16,22V21H14v1a1,1,0,0,0,2,0Z"/></g></g></svg>