<svg xmlns="http://www.w3.org/2000/svg" viewBox="0 0 239 239"><defs><style>.cls-1{fill:#d0f4fc;}.cls-2{fill:#3fd4fc;}.cls-3{fill:#66d0ff;}.cls-4{fill:#fff;}.cls-5{fill:#6dcdf7;}.cls-10,.cls-6{fill:#38b3f9;}.cls-7{fill:#3274cb;}.cls-8{fill:#6596d8;}.cls-9{fill:#cdb8ff;}.cls-10{fill-rule:evenodd;}</style></defs><title>intro-customer-illustration-2</title><g id="Layer_2" data-name="Layer 2"><g id="Layer_1-2" data-name="Layer 1"><rect class="cls-1" width="239" height="239"/><path class="cls-1" d="M177.34,11.33H92.74A16.13,16.13,0,0,0,76.63,27.45V215.2a16.13,16.13,0,0,0,16.11,16.12h84.6a16.13,16.13,0,0,0,16.11-16.12V27.45a16.13,16.13,0,0,0-16.11-16.12"/><path class="cls-2" d="M189.6,215.2a12.24,12.24,0,0,1-12.26,12.24H92.74A12.25,12.25,0,0,1,80.48,215.2V27.45A12.25,12.25,0,0,1,92.74,15.21H108.8v1.54A6.28,6.28,0,0,0,115.09,23H155a6.28,6.28,0,0,0,6.29-6.26V15.21h16.07A12.25,12.25,0,0,1,189.6,27.45ZM177.34,11.33H92.74A16.13,16.13,0,0,0,76.63,27.45V215.2a16.13,16.13,0,0,0,16.11,16.12h84.6a16.13,16.13,0,0,0,16.11-16.12V27.45a16.13,16.13,0,0,0-16.11-16.12"/><rect class="cls-3" x="89.68" y="113.84" width="91.95" height="28.15"/><circle class="cls-4" cx="103.3" cy="127.76" r="8.24"/><rect class="cls-4" x="116.34" y="121.5" width="57.8" height="4.55"/><rect class="cls-4" x="116.34" y="129.59" width="57.8" height="4.55"/><path class="cls-5" d="M66.87,195s-5.63-7.41-5.74-8.5a4.28,4.28,0,0,1,.86-2.41l4,3-3.73-5.86.46-5.11,6,5-2.81-7.23,5.28-4,2.81,4.7-1.38-5.85,6.2-2.3,1.61,2.64.8-4,7-.47-6.8,7.07L68.59,189.86,66.87,195"/><path class="cls-6" d="M67.36,196.23v-1.82l9.41-2.89-4.71-1.65,6.59.3,2.72-3.1L76,185.83h6.27l1.56-5.27-5-3.3,6,.41.91-3.95-2.31-1.9h3.21l1.49-7.17s-19.21,12.74-21.27,28.52l-.41,3.06Z"/><polygon class="cls-6" points="56.29 192 60.55 185.44 56.9 148.58 54.32 145.01 50.23 150.14 52.48 142.46 45.43 133.16 41.51 136.02 42.06 129.97 30.15 122.76 41.51 140.51 47.48 153.79 56.29 192"/><path class="cls-5" d="M30.15,122.76S56.9,152.65,56.9,196.67H55.62l-.12-4L45.11,179.28,40.55,167l7,.82-6.89-3.27-2.1-12,6.89-.24-7.94-5.37-2-8.57,3.42-.88-4.12-1.77Z"/><path class="cls-6" d="M51.41,195.79s5.63-7.4,5.74-8.49a4.28,4.28,0,0,0-.86-2.41l-4,3L56.06,182l-.46-5.11-6,5,2.82-7.23-5.29-4-2.81,4.71,1.38-5.86-6.2-2.29-1.61,2.64-.8-4-7-.47,6.8,7.07,12.74,18.14,1.72,5.1"/><path class="cls-6" d="M59.92,191s9.53-12.59,10-14.25h-5l7-5.46,3.25-12.7-8.64,2.14,9.26-9-.62-13.35-6,3.38,6-7.72L73.68,121.2l-3.77.48,3.06-4-1-8.29-1.55-.72,1.38-2.16-1.85-6.82-10,84.86V191"/><path class="cls-5" d="M50.92,197.05v-1.82l-9.41-2.88,4.71-1.65-6.59.3-2.72-3.1,5.36-1.24H36l-1.57-5.28,5-3.29-6,.41-.91-4,2.31-1.89H31.64l-1.49-7.17S49.36,178.21,51.42,194l.41,3.05Z"/><path class="cls-5" d="M59.36,190s-5.82-11.65-4.88-17.32l4.88,2.84-5-5.67v-14l6.24,4.57-6.24-7.24,3.12-15.9,6.58,4.09-4.85-10.07,3.28-10.87,3.93,1-2.51-4.09,3.14-8.82h1.42l-.94-2.83,2.36-5-8.82,88.78-1.73,7.71H58Z"/><polygon class="cls-7" points="44.36 207.46 48.42 231.96 68.71 231.96 72.36 207.46 44.36 207.46"/><path class="cls-8" d="M73,209.49H43.23A2.24,2.24,0,0,1,41,207.25v-9.32a2.24,2.24,0,0,1,2.24-2.24H73a2.24,2.24,0,0,1,2.24,2.24v9.32A2.24,2.24,0,0,1,73,209.49"/><path class="cls-9" d="M140.85,128.83h0a.93.93,0,1,0,.93-.93.94.94,0,0,0-.93.93Z"/><rect class="cls-4" x="89.68" y="156.5" width="22.83" height="4.55"/><rect class="cls-4" x="114.64" y="156.5" width="22.83" height="4.55"/><rect class="cls-4" x="139.64" y="156.5" width="22.83" height="4.55"/><rect class="cls-4" x="158.64" y="156.5" width="22.83" height="4.55"/><rect class="cls-4" x="89.68" y="164.15" width="91.32" height="4.55"/><rect class="cls-4" x="89.68" y="172.49" width="22.83" height="4.55"/><rect class="cls-4" x="114.64" y="172.49" width="66.36" height="4.55"/><rect class="cls-4" x="89.15" y="180.83" width="67.85" height="4.55"/><rect class="cls-4" x="160" y="180.83" width="21" height="4.55"/><rect class="cls-4" x="89.15" y="189.18" width="22.83" height="4.55"/><rect class="cls-4" x="114.11" y="189.18" width="66.89" height="4.55"/><rect class="cls-4" x="89.15" y="196.39" width="91.85" height="4.55"/><rect class="cls-4" x="89.15" y="204.73" width="22.83" height="4.55"/><rect class="cls-4" x="114.11" y="204.73" width="66.89" height="4.55"/><path class="cls-3" d="M152.69,28.76a2.27,2.27,0,0,1,1.63.69l.87.87a.36.36,0,0,0,.28.12.39.39,0,0,0,.28-.12l.86-.87a2.27,2.27,0,0,1,3.26,0,2.35,2.35,0,0,1,0,3.31l-4.4,4.44-4.41-4.45a2.34,2.34,0,0,1,0-3.3,2.29,2.29,0,0,1,1.63-.69m0-.78a3.09,3.09,0,0,0-2.19.92,3.14,3.14,0,0,0,0,4.4L155.19,38a.36.36,0,0,0,.27.12.36.36,0,0,0,.28-.12l4.69-4.72a3.13,3.13,0,0,0,0-4.41,3.08,3.08,0,0,0-4.38,0l-.58.59-.59-.59A3.08,3.08,0,0,0,152.69,28Z"/><path class="cls-3" d="M171.66,37.23a.51.51,0,0,1,.32-.48.53.53,0,0,1,.56.11.52.52,0,0,1-.37.89.51.51,0,0,1-.51-.52m1.8,0a1.31,1.31,0,0,0-.8-1.2,1.29,1.29,0,1,0-.5,2.49,1.26,1.26,0,0,0,.92-.38,1.3,1.3,0,0,0,.38-.91"/><path class="cls-3" d="M176.57,37.23h0a.52.52,0,1,1,1,.2.54.54,0,0,1-.48.32.52.52,0,0,1-.52-.52Zm1.8,0a1.29,1.29,0,1,0-1.29,1.29,1.25,1.25,0,0,0,.91-.38,1.3,1.3,0,0,0,.38-.91Z"/><path class="cls-3" d="M179,29.83l-.49,2a.9.9,0,0,1-.79.69l-5.18.54-1.12-3.38Zm-9.17-2.39h-1a.39.39,0,1,0,0,.77h1a.41.41,0,0,1,.37.27l1.65,5-.62,1.5a.36.36,0,0,0,0,.36.37.37,0,0,0,.32.17H178a.39.39,0,1,0,0-.77h-5.8l.36-.87,5.26-.54a1.67,1.67,0,0,0,1.47-1.28l.6-2.51a.39.39,0,0,0-.37-.48l-8.33-.13-.22-.7A1.18,1.18,0,0,0,169.84,27.44Z"/><rect class="cls-3" x="89.68" y="44.35" width="91.95" height="28.15"/><circle class="cls-4" cx="103.3" cy="58.28" r="8.24"/><rect class="cls-4" x="116.34" y="52.02" width="57.8" height="4.55"/><rect class="cls-4" x="116.34" y="60.1" width="57.8" height="4.55"/><path class="cls-10" d="M64.49,212.75a19.83,19.83,0,1,1,19.83,19.83,19.83,19.83,0,0,1-19.83-19.83"/><rect class="cls-3" x="89.68" y="78.5" width="91.95" height="28.15"/><circle class="cls-4" cx="103.3" cy="92.42" r="8.24"/><rect class="cls-4" x="116.34" y="86.16" width="57.8" height="4.55"/><rect class="cls-4" x="116.34" y="94.25" width="57.8" height="4.55"/><path class="cls-4" d="M83,218.52a1.41,1.41,0,1,1-1.41-1.41A1.41,1.41,0,0,1,83,218.52"/><path class="cls-4" d="M88.7,218.52a1.4,1.4,0,1,1-1.4-1.41,1.4,1.4,0,0,1,1.4,1.41"/><path class="cls-4" d="M90.73,208.18H82v1.48h7.81l-.89,3.76a1.11,1.11,0,0,1-1.07.87h-6a1.11,1.11,0,0,1-1.09-.87l-1.55-6.85a.75.75,0,0,0-.72-.57H76v1.48h1.81l1.42,6.27a2.57,2.57,0,0,0,2.53,2h6a2.59,2.59,0,0,0,2.52-2l1.08-4.67a.74.74,0,0,0-.72-.9Z"/></g></g></svg>