<svg xmlns="http://www.w3.org/2000/svg" xmlns:xlink="http://www.w3.org/1999/xlink" viewBox="0 0 268 223"><defs><style>.cls-1{fill:#fff;}.cls-2{fill:#d0f4fc;}.cls-3{fill:#c7cbd3;}.cls-4{fill:#3fd4fc;}.cls-5{mask:url(#mask);}.cls-6{fill:#7bdaff;}.cls-7{mask:url(#mask-2-2);}.cls-8{mask:url(#mask-3);}.cls-9{fill:#efefef;}.cls-10{fill:#ffcb3d;}.cls-11{fill:#e1e5f0;}.cls-12{fill:#ff5645;}.cls-13{fill:#3abf7c;}.cls-14{fill:#9f9fa0;}.cls-15{fill:#474961;}.cls-16{fill:#3361c2;}.cls-17{fill:#444;opacity:0.18;isolation:isolate;}.cls-18{fill:#482d1f;}.cls-19{mask:url(#mask-4-2);}.cls-20{fill:#ffca61;}.cls-21{fill:#2b2b2b;}.cls-22{fill:#f2f6fb;}</style><mask id="mask" x="112.17" y="32.61" width="12.93" height="40.26" maskUnits="userSpaceOnUse"><g id="mask-2"><path id="path-1" class="cls-1" d="M114.75,32.61h7.78a2.89,2.89,0,0,1,1.55.27,1.85,1.85,0,0,1,.76.76,3,3,0,0,1,.27,1.55v35.1a3,3,0,0,1-.27,1.55,2,2,0,0,1-.76.76,3,3,0,0,1-1.55.27h-7.78a3,3,0,0,1-1.55-.27,1.92,1.92,0,0,1-.76-.76,3,3,0,0,1-.27-1.55V35.19a3,3,0,0,1,.27-1.55,1.8,1.8,0,0,1,.76-.76A2.89,2.89,0,0,1,114.75,32.61Z"/></g></mask><mask id="mask-2-2" x="94.31" y="32.61" width="12.93" height="40.26" maskUnits="userSpaceOnUse"><g id="mask-4"><path id="path-3" class="cls-1" d="M96.89,32.61h7.78a2.89,2.89,0,0,1,1.55.27,1.85,1.85,0,0,1,.76.76,3,3,0,0,1,.27,1.55v35.1a3,3,0,0,1-.27,1.55,2,2,0,0,1-.76.76,3,3,0,0,1-1.55.27H96.89a3,3,0,0,1-1.55-.27,1.92,1.92,0,0,1-.76-.76,3,3,0,0,1-.27-1.55V35.19a3,3,0,0,1,.27-1.55,1.8,1.8,0,0,1,.76-.76A2.89,2.89,0,0,1,96.89,32.61Z"/></g></mask><mask id="mask-3" x="76.45" y="32.61" width="12.93" height="40.26" maskUnits="userSpaceOnUse"><g id="mask-6"><path id="path-5" class="cls-1" d="M79,32.61H86.8a2.91,2.91,0,0,1,1.56.27,1.85,1.85,0,0,1,.76.76,3,3,0,0,1,.27,1.55v35.1a3,3,0,0,1-.27,1.55,2,2,0,0,1-.76.76,3,3,0,0,1-1.56.27H79a3,3,0,0,1-1.55-.27,1.92,1.92,0,0,1-.76-.76,2.89,2.89,0,0,1-.27-1.55V35.19a2.87,2.87,0,0,1,.27-1.55,1.8,1.8,0,0,1,.76-.76A2.87,2.87,0,0,1,79,32.61Z"/></g></mask><mask id="mask-4-2" x="171.08" y="94.75" width="52.84" height="41.95" maskUnits="userSpaceOnUse"><g id="mask-8"><path id="path-7" class="cls-1" d="M213.89,123.2a42.21,42.21,0,0,1,.13,10.12.86.86,0,0,1,0,.21,7.15,7.15,0,0,1-.39,1.58l-.06.12c-.95,1.54-8.5,1-10.28,1.06-2.92.1-21.22.61-21.65.33-.21-.14-.45-1.71-.66-1.94-.7-.72-.4-5.13.27-10.42l-10.13-.86c.71-5.34,1.18-8.35,1.42-9.05.71-2,2.73-5.77,3.2-7.54,1.29-5,2.88-6.88,3.42-7.43A10.89,10.89,0,0,1,180.75,98a13,13,0,0,1,7.06-2.2l3-.21a17.17,17.17,0,0,1,5-.49,37.2,37.2,0,0,1,4.33.24c-.34-.41-.41-.52.38-.48l7.15.3a.25.25,0,0,1,.12,0,13.06,13.06,0,0,1,7.06,2.19,10.58,10.58,0,0,1,1.63,1.37c.55.54,2.14,2.42,3.43,7.43.46,1.77,2.46,5,3.17,7q.7,2,.79,8.56a97.82,97.82,0,0,1-10,1.43Z"/></g></mask></defs><title>Asset 42</title><g id="Layer_2" data-name="Layer 2"><g id="Layer_1-2" data-name="Layer 1"><rect class="cls-2" width="268" height="223"/><g id="Chair-"><path id="Combined-Shape" class="cls-3" d="M65.06,168.37H49.14a.91.91,0,0,1-.91-.88v-.1a.92.92,0,0,1,1-.89h55.23a.91.91,0,0,1,.9.89v.1a.89.89,0,0,1-.9.88H85l5.36,9.83q5.7,10.5,11.43,21l6.3,11.55a.89.89,0,0,1-.38,1.17l-.08,0a.88.88,0,0,1-1.17-.28l-23.57-43.3H67.17L43.6,211.67a.86.86,0,0,1-1.17.28l-.08,0a.89.89,0,0,1-.38-1.17l6.3-11.55q5.71-10.51,11.43-21Zm-16.77-7.88V111.41a3,3,0,0,1,3-3H84.16a3,3,0,0,1,3,3v49.11a3,3,0,0,1-3,3h0l-32.85,0A3,3,0,0,1,48.29,160.49Z"/></g><g id="Chair--2" data-name="Chair-"><path id="Combined-Shape-2" data-name="Combined-Shape" class="cls-3" d="M203.17,168.37h15.92a.91.91,0,0,0,.91-.88v-.1a.93.93,0,0,0-.95-.89H163.82a.91.91,0,0,0-.9.89v.1a.89.89,0,0,0,.9.88h19.42l-5.35,9.83q-5.7,10.5-11.43,21l-6.3,11.55a.89.89,0,0,0,.38,1.17l.08,0a.88.88,0,0,0,1.17-.28l23.57-43.3h15.7l23.57,43.3a.85.85,0,0,0,1.16.28l.08,0a.88.88,0,0,0,.39-1.17L220,199.19q-5.72-10.51-11.44-21Zm16.77-7.88V111.41a3,3,0,0,0-3-3H184.07a3,3,0,0,0-3,3v49.11a3,3,0,0,0,3,3h0l32.85,0A3,3,0,0,0,219.94,160.49Z"/></g><g id="UI-_-Charts-_-Chart-4-_-2" data-name="UI-/-Charts-/-Chart-4-/-2"><g id="Graphics-_-Graphic-3" data-name="Graphics-/-Graphic-3"><g id="Browser"><g id="Background"><rect class="cls-4" x="62.16" y="19.07" width="77.09" height="59.17" rx="1.21" ry="1.21"/></g></g><g id="Rectangle"><g id="Mask-5" data-name="Mask"><path id="path-1-2" data-name="path-1" class="cls-1" d="M114.75,32.61h7.78a2.89,2.89,0,0,1,1.55.27,1.85,1.85,0,0,1,.76.76,3,3,0,0,1,.27,1.55v35.1a3,3,0,0,1-.27,1.55,2,2,0,0,1-.76.76,3,3,0,0,1-1.55.27h-7.78a3,3,0,0,1-1.55-.27,1.92,1.92,0,0,1-.76-.76,3,3,0,0,1-.27-1.55V35.19a3,3,0,0,1,.27-1.55,1.8,1.8,0,0,1,.76-.76A2.89,2.89,0,0,1,114.75,32.61Z"/></g><g class="cls-5"><path class="cls-6" d="M112.75,55.41h11.78a.68.68,0,0,1,.35.06.4.4,0,0,1,.17.17.61.61,0,0,1,.06.34V72.87H112.17V56a.61.61,0,0,1,.06-.34.4.4,0,0,1,.17-.17A.68.68,0,0,1,112.75,55.41Z"/></g></g><g id="Rectangle-2" data-name="Rectangle"><g id="Mask-6-2" data-name="Mask"><path id="path-3-2" data-name="path-3" class="cls-1" d="M96.89,32.61h7.78a2.89,2.89,0,0,1,1.55.27,1.85,1.85,0,0,1,.76.76,3,3,0,0,1,.27,1.55v35.1a3,3,0,0,1-.27,1.55,2,2,0,0,1-.76.76,3,3,0,0,1-1.55.27H96.89a3,3,0,0,1-1.55-.27,1.92,1.92,0,0,1-.76-.76,3,3,0,0,1-.27-1.55V35.19a3,3,0,0,1,.27-1.55,1.8,1.8,0,0,1,.76-.76A2.89,2.89,0,0,1,96.89,32.61Z"/></g><g class="cls-7"><path class="cls-6" d="M94.89,41.44h11.78a.68.68,0,0,1,.35.06.46.46,0,0,1,.17.17.77.77,0,0,1,.06.35V72.87H94.31V42a.65.65,0,0,1,.06-.35.46.46,0,0,1,.17-.17A.68.68,0,0,1,94.89,41.44Z"/></g></g><g id="Rectangle-3" data-name="Rectangle"><g id="Mask-7" data-name="Mask"><path id="path-5-2" data-name="path-5" class="cls-1" d="M79,32.61H86.8a2.91,2.91,0,0,1,1.56.27,1.85,1.85,0,0,1,.76.76,3,3,0,0,1,.27,1.55v35.1a3,3,0,0,1-.27,1.55,2,2,0,0,1-.76.76,3,3,0,0,1-1.56.27H79a3,3,0,0,1-1.55-.27,1.92,1.92,0,0,1-.76-.76,2.89,2.89,0,0,1-.27-1.55V35.19a2.87,2.87,0,0,1,.27-1.55,1.8,1.8,0,0,1,.76-.76A2.87,2.87,0,0,1,79,32.61Z"/></g><g class="cls-8"><path class="cls-6" d="M77,48.42H88.81a.72.72,0,0,1,.34.06.35.35,0,0,1,.17.17.65.65,0,0,1,.07.35V72.87H76.45V49a.68.68,0,0,1,.06-.35.46.46,0,0,1,.17-.17A.77.77,0,0,1,77,48.42Z"/></g></g></g><path id="Top-bar-Copy" class="cls-9" d="M62.16,22.42a3.35,3.35,0,0,1,3.35-3.35H135.9a3.35,3.35,0,0,1,3.35,3.35v3.34H62.16Z"/></g><g id="UI-_-Charts-_-Chart-2-_-1" data-name="UI-/-Charts-/-Chart-2-/-1"><g id="Chart"><g id="Browser-2" data-name="Browser"><rect id="Background-2" data-name="Background" class="cls-4" x="130.79" y="8" width="81.52" height="61.19" rx="4.03" ry="4.03"/></g><g id="Graphic"><polygon id="Shape" class="cls-1" points="172.47 25.35 185.39 29.32 199.04 36.88 199.95 35.3 186.13 27.65 172.24 23.39 158.23 31.46 144.26 36.19 144.86 37.9 159.01 33.12 172.47 25.35"/><path id="Oval" class="cls-10" d="M144,39.43a2.24,2.24,0,1,1,2.29-2.23A2.26,2.26,0,0,1,144,39.43Zm13.74-5.11a2.24,2.24,0,1,1,2.29-2.24A2.27,2.27,0,0,1,157.76,34.32Zm13.75-7.68a2.24,2.24,0,1,1,2.29-2.24A2.27,2.27,0,0,1,171.51,26.64Zm13.74,3.84a2.24,2.24,0,1,1,2.29-2.24A2.27,2.27,0,0,1,185.25,30.48ZM199,38.8a2.24,2.24,0,1,1,2.29-2.24A2.27,2.27,0,0,1,199,38.8Z"/></g><path id="Diagram-2" class="cls-1" d="M178,48.54V59.13a.78.78,0,0,1-.77.78h-.42a.77.77,0,0,1-.77-.78V48.54a.76.76,0,0,1,.77-.77h.42A.77.77,0,0,1,178,48.54ZM174,50.46v8.67a.78.78,0,0,1-.78.78h-.41a.78.78,0,0,1-.78-.78V50.46a.78.78,0,0,1,.78-.78h.41A.78.78,0,0,1,174,50.46ZM170.1,44.7V59.13a.78.78,0,0,1-.77.78h-.42a.77.77,0,0,1-.77-.78V44.7a.77.77,0,0,1,.77-.77h.42A.78.78,0,0,1,170.1,44.7Zm-3.93,3.84V59.13a.77.77,0,0,1-.77.78H165a.78.78,0,0,1-.77-.78V48.54a.77.77,0,0,1,.77-.77h.42A.76.76,0,0,1,166.17,48.54Zm-3.92-5.75V59.13a.78.78,0,0,1-.77.78h-.42a.77.77,0,0,1-.77-.78V42.79a.77.77,0,0,1,.77-.78h.42A.78.78,0,0,1,162.25,42.79Zm-3.93,1.91V59.13a.77.77,0,0,1-.77.78h-.42a.78.78,0,0,1-.77-.78V44.7a.78.78,0,0,1,.77-.77h.42A.77.77,0,0,1,158.32,44.7Zm-3.92-3.19V59.13a.78.78,0,0,1-.77.78h-.42a.77.77,0,0,1-.77-.78V41.51a.76.76,0,0,1,.77-.77h.42A.77.77,0,0,1,154.4,41.51Zm-3.93-1.28v18.9a.77.77,0,0,1-.77.78h-.42a.78.78,0,0,1-.77-.78V40.23a.77.77,0,0,1,.77-.77h.42A.76.76,0,0,1,150.47,40.23Zm-3.92,4.47V59.13a.78.78,0,0,1-.77.78h-.42a.77.77,0,0,1-.77-.78V44.7a.77.77,0,0,1,.77-.77h.42A.78.78,0,0,1,146.55,44.7Zm54.95,3.84V59.13a.77.77,0,0,1-.77.78h-.42a.78.78,0,0,1-.77-.78V48.54a.77.77,0,0,1,.77-.77h.42A.76.76,0,0,1,201.5,48.54Zm-3.92-5.75V59.13a.78.78,0,0,1-.78.78h-.41a.78.78,0,0,1-.78-.78V42.79a.78.78,0,0,1,.78-.78h.41A.78.78,0,0,1,197.58,42.79Zm-3.93,1.91V59.13a.77.77,0,0,1-.77.78h-.42a.77.77,0,0,1-.77-.78V44.7a.77.77,0,0,1,.77-.77h.42A.78.78,0,0,1,193.65,44.7Zm-3.92-3.19V59.13a.78.78,0,0,1-.78.78h-.41a.78.78,0,0,1-.78-.78V41.51a.77.77,0,0,1,.78-.77H189A.77.77,0,0,1,189.73,41.51Zm-3.93-1.28v18.9a.78.78,0,0,1-.77.78h-.42a.77.77,0,0,1-.77-.78V40.23a.76.76,0,0,1,.77-.77H185A.77.77,0,0,1,185.8,40.23Zm-3.92,4.47V59.13a.78.78,0,0,1-.78.78h-.41a.78.78,0,0,1-.78-.78V44.7a.78.78,0,0,1,.78-.77h.41A.78.78,0,0,1,181.88,44.7Z"/></g><path id="Top-bar-Copy-2" data-name="Top-bar-Copy" class="cls-11" d="M130.79,11.46A3.46,3.46,0,0,1,134.25,8h74.6a3.46,3.46,0,0,1,3.46,3.46v3.46H130.79Z"/><ellipse id="Burron-Copy" class="cls-12" cx="135.54" cy="11.54" rx="1.53" ry="1.49"/><ellipse id="Burron-Copy-2" class="cls-10" cx="140.52" cy="11.54" rx="1.53" ry="1.49"/><ellipse id="Burron-Copy-3" class="cls-13" cx="145.67" cy="11.54" rx="1.53" ry="1.49"/></g><g id="Characters-sitting-_-Man-sitting-_-4" data-name="Characters-sitting-/-Man-sitting-/-4"><g id="Man"><g id="Legs"><path id="Base" class="cls-14" d="M176,210.26l20-14.89a.9.9,0,0,1,1.28.18.92.92,0,0,1-.18,1.29l-20.21,15a.92.92,0,0,1-1.1-1.47l.21-.16h.29a.91.91,0,1,1,0,1.81H165.13a.91.91,0,1,1,0-1.81Zm35.47,1.85H190.83a.86.86,0,0,1-.9-.76v-.28a.84.84,0,0,1,.9-.77h20.63a.86.86,0,0,1,.91.77v.28C212.41,211.76,212,212.11,211.48,212.11Z"/><path id="Shape-2" data-name="Shape" class="cls-15" d="M192.64,200.17q.45.18,14.79-.56l3.44,10.69H190.81c1.31-6.5,1.92-9.89,1.84-10.14Zm3.29-4.75L176,210.26H165.13a.84.84,0,0,0-.35.07,1.13,1.13,0,0,1,0-.25,4.66,4.66,0,0,1,.06-.47,4.1,4.1,0,0,1,.44-1,5.66,5.66,0,0,1,1.63-1.57,22.57,22.57,0,0,1,3.62-1.87c.69-.31,1.65-.71,2.78-1.15.36-1.17.73-2.34,1.09-3.52.68-2.28,1.37-4.53,2-6.79l12.12-8.79,7.41,10.5Z"/><path class="cls-16" d="M192.42,190.48c-1.35.82-3.69,1.43-7.35,2.67-6.74,2.28-9.44,3.78-11.42,2.25a3.49,3.49,0,0,1-1.1-1.34c-3.1-7.2-15-27.49-21.27-42.53,0,0,0-.05,0-.09a8.85,8.85,0,0,1,5.08-11.91c1.59-.54,3.18-1.07,4.77-1.62a9.05,9.05,0,0,1,4.37-.33l-.08-.13,47.94-1.37c.82.41,1.36,2.07,2.3,4.69a27.68,27.68,0,0,1,1.16,7.67,28,28,0,0,1-1.94,10.65,11.87,11.87,0,0,1-3.1,4.55,4,4,0,0,1-.63.47V165c0,10.53-.36,25.57-.48,30.57a4.83,4.83,0,0,1-1.15,3.58,4.12,4.12,0,0,1-1.33.76,27.39,27.39,0,0,1-7.26,1.32,6.58,6.58,0,0,1-.89,0c-4.52-.17-5.73-.47-7.44-1l4.55-3.39a.92.92,0,0,0,.18-1.29.9.9,0,0,0-1.28-.18l-.1.07Zm-4.49-16.32c-.13-1.52-.25-3.21-.35-5.09l-.35-5.74-5.5-2C183.81,165.53,185.89,169.83,187.93,174.16Z"/><path id="Shadow-Legs" class="cls-17" d="M211.11,164c0-3.67,0-6.81.06-8.88,0-1.77.34-11.5-3.56-13.53a13,13,0,0,0-1.37-.56,18.52,18.52,0,0,0-7-1c-2.36.09-5.9.25-8.82,2.68-4,3.37-3.92,8.68-3.88,9.54l.67,11-5.53-2.05c-3.16-6.41-6.33-12.66-9.4-18.6a9.57,9.57,0,0,0-7.39-5.13L213.32,136c.82.41,1.36,2.07,2.3,4.68a28.27,28.27,0,0,1-.78,18.32,11.83,11.83,0,0,1-3.1,4.56A5.73,5.73,0,0,1,211.11,164Z"/><path id="Shadow" class="cls-18" d="M192.79,190.64a3.41,3.41,0,0,0,1.42-4.81c-2.2-4.93-3.73-8.19-4.58-9.81a.31.31,0,0,0-.41-.12.3.3,0,0,0-.13.4q1.28,2.4,4.57,9.78a3.49,3.49,0,0,1,.29,2.39,3.56,3.56,0,0,1-1.51,1.67.31.31,0,0,0,.35.5Z"/></g><g id="Body"><g id="Path-5-3" data-name="Path-5"><g id="Shirt"><path id="path-7-2" data-name="path-7" class="cls-6" d="M213.89,123.2a42.21,42.21,0,0,1,.13,10.12.86.86,0,0,1,0,.21,7.15,7.15,0,0,1-.39,1.58l-.06.12c-.95,1.54-8.5,1-10.28,1.06-2.92.1-21.22.61-21.65.33-.21-.14-.45-1.71-.66-1.94-.7-.72-.4-5.13.27-10.42l-10.13-.86c.71-5.34,1.18-8.35,1.42-9.05.71-2,2.73-5.77,3.2-7.54,1.29-5,2.88-6.88,3.42-7.43A10.89,10.89,0,0,1,180.75,98a13,13,0,0,1,7.06-2.2l3-.21a17.17,17.17,0,0,1,5-.49,37.2,37.2,0,0,1,4.33.24c-.34-.41-.41-.52.38-.48l7.15.3a.25.25,0,0,1,.12,0,13.06,13.06,0,0,1,7.06,2.19,10.58,10.58,0,0,1,1.63,1.37c.55.54,2.14,2.42,3.43,7.43.46,1.77,2.46,5,3.17,7q.7,2,.79,8.56a97.82,97.82,0,0,1-10,1.43Z"/></g><g class="cls-19"><path id="T-shirt" class="cls-1" d="M191.93,95.39c-1.63.47-2.66,2.1-3.07,4.91s-.92,11.06-1.51,24.76l9.22,2.86,9.63-2.58q-.88-21.93-1.48-25.21c-.58-3.29-1.14-3.94-3.06-4.74a11.52,11.52,0,0,0-5.88-.5C194.36,95,193.08,95.18,191.93,95.39Z"/></g></g><path id="Skin" class="cls-20" d="M200.43,89.32l.22,6.5a.37.37,0,0,1-.18.34,6.76,6.76,0,0,1-2.19.89,7.77,7.77,0,0,1-3.91-.14.38.38,0,0,1-.28-.36L194,93c-1.05.39-1,.35-1.09.39a7.71,7.71,0,0,1-2.56.24A3.3,3.3,0,0,1,188.2,92a16,16,0,0,1-2.2-6.06,6.73,6.73,0,0,1-.12-1.09l-.08-3.6a4.86,4.86,0,0,1,.56-2.34,3.83,3.83,0,0,1,.53-.8l0,0,0,0c1.55-2.15,4.79-2.44,6.28-2.28.18,0,.82.11,1.75.17.5,0,.9,0,1.15.06,3,.12,4.18-.25,5.69.56a4.44,4.44,0,0,1,1.49,1.21c1.59,2,1.13,4.57,1,5.33a9.51,9.51,0,0,1-2,4.29A12.23,12.23,0,0,1,200.43,89.32Zm-27.61,44c-1.55-2.15-1.58-5.93-1.17-9.87q.67,0,9.54.69c1.22.1,3.27.34,6.17.73L198,127.28l12.53-3.06-.06-.57,3.78-.5c2.13-.31,5.25-.76,9.36-1.38.53,6.19-.37,13-6.3,15h-25l-21.64.64a.6.6,0,0,1-.62-.59.56.56,0,0,1,.11-.37A23,23,0,0,1,172.82,133.29Z"/><path id="Shadow-2" data-name="Shadow" class="cls-20" d="M172.84,133.32c-1.57-2.15-1.6-5.94-1.19-9.9q.67,0,6.88.47c1.44.06,4.38.37,8.83,1l10.74,2.46-11.41,2.8c-.31-.11-.62-.2-.94-.29a14.09,14.09,0,0,0-11,2A11.42,11.42,0,0,0,172.84,133.32Z"/><path id="Hair" class="cls-18" d="M204.09,84.05c-.89-.23-1.87-.5-2.88-.79a2.32,2.32,0,0,0-.37-.8,2.79,2.79,0,0,0-2.9-1.09A2.31,2.31,0,0,0,197,82c-2.45-.79-4.61-1.55-5.63-2a6.57,6.57,0,0,1-2.35-1.4,22.77,22.77,0,0,1-3.24,1.66,4.63,4.63,0,0,1,.5-1.45,3.33,3.33,0,0,1,.52-.81l0,0,0,0c1.55-2.15,4.79-2.44,6.28-2.27.18,0,.82.1,1.75.16.5,0,.91,0,1.15.06,3,.12,4.18-.24,5.69.56a4.44,4.44,0,0,1,1.49,1.21A7,7,0,0,1,204.34,83,6.58,6.58,0,0,1,204.09,84.05Z"/><path id="Ear" class="cls-18" d="M201.2,83.31a2.88,2.88,0,0,1-.28,1.74,2.6,2.6,0,0,1-1.38,1.28.2.2,0,0,0-.09.27.19.19,0,0,0,.26.1,3.68,3.68,0,0,0,.71-.42,3.14,3.14,0,0,0,.86-1,3.42,3.42,0,0,0,.32-2,.2.2,0,0,0-.4.07Z"/><path id="Shadow-3" data-name="Shadow" class="cls-18" d="M182.82,124.09c.39-7.38.56-10.67.78-14.78a.3.3,0,1,1,.6,0l-.78,14.78A.3.3,0,1,1,182.82,124.09Zm28.05-.63a.31.31,0,0,1-.58.19l-2.79-8.58a.3.3,0,0,1,.57-.2C208.46,115.93,210.29,121.59,210.87,123.46Z"/></g></g></g><g id="Legs-2" data-name="Legs"><path id="Base-2" data-name="Base" class="cls-14" d="M61.33,212.09a.82.82,0,0,1-.9-.77V211a.86.86,0,0,1,.9-.76H82a.85.85,0,0,1,.91.76v.28a.86.86,0,0,1-.91.77Zm26.89-1.81h32a.91.91,0,0,1,0,1.81h-32a.91.91,0,0,1,0-1.81Z"/><path class="cls-15" d="M87.05,162.89l-1.72.91,0,.79c0,2-.13,3.83-.23,5.4-.08,1.24-1.13,15.3-1.51,20.46A2.91,2.91,0,0,1,81.48,193c-1.77.55-2.9.87-7.55,1.19a6.5,6.5,0,0,1-.88,0,29,29,0,0,1-7.31-.95,4.36,4.36,0,0,1-1.35-.64,4.13,4.13,0,0,1-1.26-3.21c-.25-4-.92-14.84-1.32-23.9a3,3,0,0,1-1-.58A12.71,12.71,0,0,1,57,160.45q-3.89-9.07-.83-20.24,2.38-5.16,3.21-5.61l42.16,2.88,1.17,0a8.73,8.73,0,0,1,9.09,8.74v.09c-.32,15.06-4.08,36.5-4.34,43.75a3.11,3.11,0,0,1-.53,1.52c-1.31,2-4.37,1.52-11.51,1.69-6.08.15-8.53.59-9.78-1a3.43,3.43,0,0,1-.65-2.34C85.51,180.83,86.22,171.72,87.05,162.89Z"/><path id="Shadow-4" data-name="Shadow" class="cls-17" d="M87.13,162.88l-1.72.91.46-14.51a10.63,10.63,0,0,0-4.19-8.52c-3-2.11-6.54-2.12-8.9-2.13-1.33,0-6.09-.09-8,2.13-3.23,3.83-3.51,11-3.45,12,.11,2,.25,5.18.38,8.86,0,1.23.09,2.53.15,3.86a2.92,2.92,0,0,1-1-.58,12.71,12.71,0,0,1-3.79-4.47q-3.89-9.07-.83-20.24,2.39-5.16,3.21-5.61l41.78,2.85-3.49.08A8.9,8.9,0,0,0,89,145.2C88.33,150.88,87.7,156.81,87.13,162.88Z"/><path id="Combined-Shape-3" data-name="Combined-Shape" class="cls-15" d="M82.37,210.37a1,1,0,0,0-.43-.09H61.56l4.74-12.36,14.12.75Zm5.48,0-.1-12.94,15.22.22,3.58,2.7a18,18,0,0,0,2.68,2.25c2.34,1.59,3.56,1.57,7.13,3.34a23.78,23.78,0,0,1,2.79,1.57,4.91,4.91,0,0,1,1.45,2.19,3.55,3.55,0,0,1,.06.47,1.93,1.93,0,0,1,0,.26.87.87,0,0,0-.45-.12h-32A1,1,0,0,0,87.85,210.34Z"/></g><path id="T-shirt-2" data-name="T-shirt" class="cls-16" d="M88.2,115.2c-.34,6.85-1.1,16.28-1.79,18.11-1,2.77-21.07.8-23.73.19-1.67-.38-3.22-4.87-3.51-6.37-.25-1.22-1.6-2.57,1.35-13.33L57.6,113c-2.33-.59-1.31-3.31-.9-5.19,1.19-5.33,2.67-7.29,3.18-7.88a11.14,11.14,0,0,1,1.52-1.45A11,11,0,0,1,68,96.22a.2.2,0,0,1,.11,0l6.66-.08-.07.57.82,0,0-.57,6.55,1.23.1,0a11.3,11.3,0,0,1,6.11,3.31,10.37,10.37,0,0,1,1.26,1.63c.4.64,1.54,2.74,1.81,8,.1,1.84.66,4.59-1.73,4.74Z"/><path id="Shadow-Arm" class="cls-17" d="M88.23,115.19A51.92,51.92,0,0,0,88,106a17.17,17.17,0,0,0-.38-1.82,6.7,6.7,0,0,0-.92-2.43c-1.78-3-5.35-3.9-7.75-4.56a22.07,22.07,0,0,0-3.44-.37l0-.61,6.55,1.23.1,0a11.3,11.3,0,0,1,6.11,3.31,10.37,10.37,0,0,1,1.26,1.63c.4.64,1.54,2.74,1.81,8,.1,1.84.66,4.59-1.73,4.74l-1.41.1Z"/><path id="Finger" class="cls-20" d="M97.89,108.53a97.66,97.66,0,0,1,8.24-6.72q1.83.21-.26,2.9Z"/><path id="Combined-Shape-4" data-name="Combined-Shape" class="cls-20" d="M67.24,193.6a41.51,41.51,0,0,0,5.87.6,6.5,6.5,0,0,0,.88,0,32.69,32.69,0,0,0,6.34-.83l.09,5.31-14.12-.75Zm20.47-.32c1.56.26,4,.05,7.8,0,2.06-.05,3.78,0,5.22-.06l2.23,4.44-15.21-.22ZM86.87,130l1.32-14.85.66,0a6.36,6.36,0,0,0,1-.11,2.16,2.16,0,0,0,1-.35l.59,4,5.7-9.31a3,3,0,0,1,1.15-1.09l10.12-5.41a12.21,12.21,0,0,1,3.35-2.52,2.08,2.08,0,0,1,2.13.68L105,110.26q-1.67,4.81-3.66,9.6t-6.21,14a65.54,65.54,0,0,1,6.14,3.69s-28.54-.49-39.86-1.18c-10.07-.62-5.21-19.32-4-23.43l.2,0c2.08.53,10.54,2.88,13.4,3l-2.75,9.59A59.76,59.76,0,0,1,86.87,130Zm-7.7-33.39c.5.14,1,.31,1.55.5a2.85,2.85,0,0,1-1.86,1.92,11.69,11.69,0,0,1-6-.53,5.92,5.92,0,0,1-2.84-2.36l2.06,0V88.68A9.37,9.37,0,0,1,70.91,87a9,9,0,0,1-.18-4.12c.06-.43,3.16-3.48,5-.49l-.17-5.15a.6.6,0,0,1,.58-.62,8.84,8.84,0,0,0,2.15-.35l.24,0c.67-.12,4.49-.64,6.7,2a3.6,3.6,0,0,1,.55.78,5.14,5.14,0,0,1,.59,2.31l0,3.59A9.25,9.25,0,0,1,86.26,86a15.78,15.78,0,0,1-2,6.12,3.31,3.31,0,0,1-2.11,1.76,8.32,8.32,0,0,1-2.58-.16,3.88,3.88,0,0,1-.59-.18Z"/><path id="Hair-2" data-name="Hair" class="cls-18" d="M75.92,84.24l0-.37a3.44,3.44,0,0,0-.71-1.39,2.45,2.45,0,0,0-1-.62A2.68,2.68,0,0,0,71.41,83a2.94,2.94,0,0,0-.08,3,2.87,2.87,0,0,0,1.51,1.32l1.2.27a16,16,0,0,1-1.82,3.09c-.33,0-1.62-1.53-2.47-2.69a9.11,9.11,0,0,1-2.25-4.2,8.13,8.13,0,0,1,.06-3.49,9.85,9.85,0,1,1,14.13-4.22,5.71,5.71,0,0,1,3.74,2.44,4.45,4.45,0,0,1-1.44.67,7.41,7.41,0,0,1-3.64,0c-1.4,1.57-2.82,3.13-4.21,4.71Z"/><path id="Nose" class="cls-21" d="M83.89,86l.2,2a.08.08,0,0,1,0,0l-.4,0h-.57a.2.2,0,1,0,0,.4h1a.46.46,0,0,0,.4-.48l-.2-2a.2.2,0,1,0-.4,0Z"/><path id="Shadow-Arm-2" data-name="Shadow-Arm" class="cls-20" d="M88.19,115.19l-1.32,14.86q2.8,1.15,4.2,1.81c.92.44,2.28,1.12,4.06,2q4.22-9.25,6.22-14t3.66-9.6l8.82-9.24a2.08,2.08,0,0,0-2.13-.68,12.21,12.21,0,0,0-3.35,2.52l-10.12,5.41a3,3,0,0,0-1.15,1.09l-5.7,9.31-.59-4a1.77,1.77,0,0,1-.9.35,6.36,6.36,0,0,1-1,.11Z"/><g id="Interior-_-Table-_-Table-2" data-name="Interior-/-Table-/-Table-2"><g id="Table-Copy"><path id="Rectangle-4" data-name="Rectangle" class="cls-3" d="M57.33,135H218.55a1.41,1.41,0,0,1,1.41,1.41h0a1.41,1.41,0,0,1-1.41,1.41H57.33a1.41,1.41,0,0,1-1.41-1.41h0A1.41,1.41,0,0,1,57.33,135Z"/></g></g><g id="UI-_-Icons-_-Money" data-name="UI-/-Icons-/-Money"><g id="Group-21"><circle id="Oval-2" data-name="Oval" class="cls-4" cx="62.16" cy="19.07" r="11.07"/><path id="_" data-name="$" class="cls-22" d="M66.16,16.32l-2.45.39a2.36,2.36,0,0,0-.33-.65,1.77,1.77,0,0,0-.49-.37V17.6a7,7,0,0,1,2.67,1.12,2.58,2.58,0,0,1,.89,2,2.69,2.69,0,0,1-.32,1.32,3.19,3.19,0,0,1-.81,1,3.25,3.25,0,0,1-1.06.58,5.1,5.1,0,0,1-1.37.22V25.1h-1V23.86a5.75,5.75,0,0,1-1.57-.32,3.27,3.27,0,0,1-1-.62,3.22,3.22,0,0,1-.68-.87,4.35,4.35,0,0,1-.35-1.12L61,20.62a2.42,2.42,0,0,0,.32.94,1.65,1.65,0,0,0,.66.51V19.75A12.73,12.73,0,0,1,60,19.11a2.47,2.47,0,0,1-1-.87,2.5,2.5,0,0,1-.41-1.45,2.6,2.6,0,0,1,.82-2A3.74,3.74,0,0,1,61.93,14v-.65h1V14a4,4,0,0,1,2.26.7A2.75,2.75,0,0,1,66.16,16.32Zm-4.23-.66a1.29,1.29,0,0,0-.59.34.75.75,0,0,0-.16.48.77.77,0,0,0,.17.51,1.26,1.26,0,0,0,.58.36Zm1,6.48a1.51,1.51,0,0,0,.82-.41,1,1,0,0,0,.26-.64.83.83,0,0,0-.22-.57,2,2,0,0,0-.86-.49Z"/></g></g><g id="IMac"><path class="cls-15" d="M133.26,132.19l1.94-7.81H120.67a2.67,2.67,0,0,1-2.76-2.54V99.72a2.63,2.63,0,0,1,2.74-2.56h44.22a2.67,2.67,0,0,1,2.76,2.54v22.14a2.67,2.67,0,0,1-2.76,2.54H147.16l-.8,7.81h5.25a1.43,1.43,0,0,1,0,2.85H129.16a1.42,1.42,0,0,1-1.43-1.43,1.4,1.4,0,0,1,1.43-1.42Z"/><path id="Shadow-5" data-name="Shadow" class="cls-1" d="M147.76,118.68l.06,13.53h-1.44Z"/></g><path class="cls-21" d="M86.66,83.13a2.85,2.85,0,0,0-2.59,2.5l-.61,0a.37.37,0,0,1,0-.11,2.86,2.86,0,0,0-5.4-1l-1.3-.28a.3.3,0,0,0-.12.59l1.2.26a2.84,2.84,0,0,0-.08,1,2.86,2.86,0,0,0,5.67.22l.64,0a2.86,2.86,0,1,0,2.6-3.1ZM80.8,88a2.27,2.27,0,0,1-2.32-3,.22.22,0,0,0,0-.11v0A2.26,2.26,0,1,1,80.8,88Zm6.3.23a2.25,2.25,0,0,1-2.44-2,.91.91,0,0,1,0-.17.09.09,0,0,0,0,0,.17.17,0,0,0,0-.07,2.26,2.26,0,1,1,2.45,2.34Z"/></g></g></svg>