<svg xmlns="http://www.w3.org/2000/svg" viewBox="0 0 268.29 223"><defs><style>.cls-1{fill:#d0f4fc;}.cls-10,.cls-13,.cls-18,.cls-2,.cls-20,.cls-21,.cls-8{fill:none;}.cls-2{stroke:#b6d4ff;stroke-width:18px;}.cls-3{fill:#3aa5db;}.cls-4{fill:#38b3f9;}.cls-5{fill:#ecf6ff;}.cls-6{fill:#6dcdf7;}.cls-7{fill:#e4eff7;}.cls-8{stroke:#475056;stroke-width:5px;}.cls-10,.cls-18,.cls-21,.cls-8{stroke-miterlimit:10;}.cls-9{fill:#3fd4fc;}.cls-10,.cls-13,.cls-21{stroke:#fff;}.cls-10{stroke-linecap:square;}.cls-10,.cls-13,.cls-18,.cls-21{stroke-width:3px;}.cls-11{fill:#24272d;}.cls-12{fill:#fff;}.cls-13{stroke-linejoin:round;}.cls-14{fill:#ea6f57;}.cls-15{fill:#3361c2;}.cls-16{fill:#ffca61;}.cls-17{fill:#ffd385;}.cls-18{stroke:#25282d;}.cls-19{fill:#004599;}</style></defs><title>Asset 37</title><g id="Layer_2" data-name="Layer 2"><g id="Layer_1-2" data-name="Layer 1"><rect class="cls-1" x="0.29" width="268" height="223"/><g id="Scene"><path id="Stroke-1" class="cls-2" d="M64.3,17V97.41"/><path id="Stroke-2" class="cls-2" d="M105.06,17V97.41"/><path id="Stroke-3" class="cls-2" d="M26.7,17V97.41"/><polygon id="Fill-4" class="cls-3" points="140.8 99.37 144.68 99.37 144.68 15.01 140.8 15.01 140.8 99.37"/><path id="Fill-5" class="cls-1" d="M23.3,99.37H142.51V15H23.3Zm3.64-3.64H138.88V18.64H26.94Z"/><polygon id="Fill-6" class="cls-4" points="19.82 103.25 135.94 103.25 135.94 99.37 19.82 99.37 19.82 103.25"/><polygon id="Fill-7" class="cls-3" points="135.94 103.25 145.67 103.25 145.67 99.37 135.94 99.37 135.94 103.25"/><path id="Stroke-8" class="cls-1" d="M62.53,16.09v82.2"/><path id="Stroke-9" class="cls-1" d="M103.28,16.09v82.2"/><path id="Stroke-10" class="cls-1" d="M25.33,57.19h114"/><path id="Fill-11" class="cls-4" d="M39.39,119.48C39.39,83.29,20.69,49,20.69,49h-6.4v70.53Z"/><path id="Fill-13" class="cls-4" d="M39.39,6.15c0,22-18.7,42.8-18.7,42.8h-6.4V6.15Z"/><polygon id="Fill-15" class="cls-5" points="23.42 52.04 11.96 52.53 11.96 46.43 23.42 46.92 23.42 52.04"/><path id="Fill-17" class="cls-4" d="M126.76,119.48c0-36.19,18-70.53,18-70.53h6.15v70.53Z"/><path id="Fill-19" class="cls-4" d="M126.76,6.15c0,22,18,42.8,18,42.8h6.15V6.15Z"/><polygon id="Fill-21" class="cls-5" points="141.91 52.04 152.62 52.53 152.62 46.43 141.91 46.92 141.91 52.04"/><polygon id="Fill-23" class="cls-4" points="3.75 9.36 160.48 9.36 160.48 6.15 3.75 6.15 3.75 9.36"/><path id="Fill-25" class="cls-4" d="M89.52,93.65h0a2.26,2.26,0,0,1-2.25-2.26v-20a2.25,2.25,0,0,1,4.5,0v20a2.26,2.26,0,0,1-2.25,2.26"/><path id="Fill-26" class="cls-4" d="M83.73,80.15h5.15a1.21,1.21,0,0,0,1.21-1.21v-.06a1.21,1.21,0,0,0-1.21-1.21H83.73a1.21,1.21,0,0,0-1.21,1.21v.06a1.21,1.21,0,0,0,1.21,1.21"/><path id="Fill-27" class="cls-4" d="M84,80.15h0a1.47,1.47,0,0,1-1.47-1.47V74.44A1.47,1.47,0,0,1,84,73h0a1.47,1.47,0,0,1,1.47,1.47v4.24A1.47,1.47,0,0,1,84,80.15"/><path id="Fill-28" class="cls-4" d="M95.66,86.79H90.83a1.21,1.21,0,0,1-1.21-1.21v-.73a1.21,1.21,0,0,1,1.21-1.21h4.83a1.22,1.22,0,0,1,1.22,1.21v.73a1.22,1.22,0,0,1-1.22,1.21"/><path id="Fill-29" class="cls-4" d="M95.36,86.79h.21a1.31,1.31,0,0,0,1.31-1.31v-4.7a1.31,1.31,0,0,0-1.31-1.31h-.21a1.31,1.31,0,0,0-1.3,1.31v4.7a1.31,1.31,0,0,0,1.3,1.31"/><polygon id="Fill-30" class="cls-3" points="83.6 89.37 96.26 89.37 94.92 99.35 84.94 99.35 83.6 89.37"/><path id="Fill-31" class="cls-3" d="M111.06,92.55a4.61,4.61,0,1,0,6.32-1.61,4.61,4.61,0,0,0-6.32,1.61"/><path id="Fill-32" class="cls-3" d="M112.61,88.71A4.7,4.7,0,0,0,114.79,91a3.88,3.88,0,0,0-1.88-5.5,4.66,4.66,0,0,0-.3,3.17"/><polygon id="Fill-33" class="cls-4" points="7.51 7.75 3.75 11.51 0 7.75 3.75 4 7.51 7.75"/><polygon id="Fill-34" class="cls-4" points="164.23 8.14 160.48 11.89 156.73 8.14 160.48 4.39 164.23 8.14"/><polygon id="Fill-1" class="cls-4" points="175.17 191.33 258.13 191.33 258.13 12.54 175.17 12.54 175.17 191.33"/><polygon id="Fill-2" class="cls-4" points="185.03 191.33 251.03 191.33 251.03 20.43 185.03 20.43 185.03 191.33"/><polygon id="Fill-3" class="cls-6" points="193.71 125.16 242.35 125.16 242.35 29.11 193.71 29.11 193.71 125.16"/><polygon id="Fill-4-2" data-name="Fill-4" class="cls-6" points="193.71 183.58 242.35 183.58 242.35 153.71 193.71 153.71 193.71 183.58"/><polygon id="Fill-5-2" data-name="Fill-5" class="cls-6" points="193.71 148.22 242.35 148.22 242.35 130.48 193.71 130.48 193.71 148.22"/><path id="Fill-7-2" data-name="Fill-7" class="cls-3" d="M192.24,98.86a2.52,2.52,0,1,1-2.52-2.52,2.52,2.52,0,0,1,2.52,2.52"/><path id="Fill-9" class="cls-3" d="M192.24,107.73a2.52,2.52,0,1,1-2.52-2.51,2.52,2.52,0,0,1,2.52,2.51"/><polygon id="Fill-11-2" data-name="Fill-11" class="cls-3" points="258.13 191.33 260.82 191.33 260.82 12.54 258.13 12.54 258.13 191.33"/></g><g id="Man"><ellipse class="cls-7" cx="124.65" cy="217.55" rx="105.52" ry="1.33"/><line class="cls-8" x1="27.86" y1="180.46" x2="27.86" y2="217.36"/><line class="cls-8" x1="66.53" y1="180.46" x2="66.53" y2="217.36"/><rect class="cls-9" x="17.51" y="143.82" width="57.45" height="57.45"/><rect class="cls-9" x="74.96" y="123.88" width="158.51" height="77.39"/><line class="cls-10" x1="37.19" y1="143.82" x2="37.19" y2="184.97"/><circle class="cls-10" cx="26.83" cy="152.98" r="3.42"/><path class="cls-11" d="M42.52,163.42s-1.39-13.29,12.55-13.29,23.86,13.29,23.86,13.29"/><path class="cls-11" d="M82.56,156l-5.9-1.52,3-3.55a.46.46,0,0,1,.64-.06.66.66,0,0,1,.12.17Z"/><path class="cls-11" d="M73.59,150.93l3,3.53L70.68,156l2.12-4.93a.47.47,0,0,1,.62-.25A.7.7,0,0,1,73.59,150.93Z"/><ellipse class="cls-11" cx="76.72" cy="159.46" rx="7.3" ry="5.96"/><line class="cls-10" x1="127.2" y1="163.42" x2="37.19" y2="163.42"/><path class="cls-12" d="M73.9,156.81c0-.51.56-.93,1.24-.93s1.24.43,1.24.93"/><path class="cls-12" d="M80,156.81c0-.51.56-.93,1.24-.93s1.24.43,1.24.93"/><path class="cls-13" d="M77,160.1a1.69,1.69,0,0,0,1.63-1.65s.5,1.52,1.52,1.52"/><path class="cls-14" d="M77.83,158h1.41a.21.21,0,0,1,.19.23.18.18,0,0,1-.06.13l-.7.6a.23.23,0,0,1-.27,0l-.7-.6a.21.21,0,0,1,0-.3A.14.14,0,0,1,77.83,158Z"/><path class="cls-11" d="M57.35,171.25c-2.05-2.38-7,2.48-10.08.51C42.42,168.67,51,155,48,153c-1.89-1.23-6.68,8.41-5.84,15.48a8.2,8.2,0,0,0,9,7.21C53.85,175.54,58.65,172.76,57.35,171.25Z"/><line class="cls-8" x1="184.02" y1="180.46" x2="184.02" y2="217.36"/><line class="cls-8" x1="222.69" y1="180.46" x2="222.69" y2="217.36"/><path class="cls-15" d="M194.16,127.62l-17.83-2.46-2.54,11.56,19,6.6a9.32,9.32,0,0,0,12.31-9.94c-.85-6.84-1.75-13.62-2.12-14.5-.79-1.84-3.55-9.59-20.25-10.3S158,123.22,158,123.22l34.51,30.85"/><ellipse class="cls-11" cx="172.76" cy="86.7" rx="13.56" ry="12.5" transform="translate(59.9 243.63) rotate(-80.93)"/><path class="cls-16" d="M178.74,114.74a5.17,5.17,0,0,1-4.47-4.31l-2.74-17.32a5.15,5.15,0,0,1,10.13-1.82l0,.22,2.76,17.3a5.15,5.15,0,0,1-4.28,5.89h0A5.26,5.26,0,0,1,178.74,114.74Z"/><path class="cls-16" d="M175.17,106.21l-1,.16a8.42,8.42,0,0,1-9.59-7.05,8.17,8.17,0,0,1-.09-1.56l.22-6.12a8.41,8.41,0,0,1,7.23-8h0a8.42,8.42,0,0,1,9.51,7.16h0l.84,6A8.41,8.41,0,0,1,175.17,106.21Z"/><path class="cls-11" d="M204.49,105.94s1.43,11.25-8,11.14c-15.62-.19-18.13-10.45-17-16.38.43-2.37,1.89-4.12,3.52-5.79-8.43-1.85-7.86-7.36-7.86-7.36S159.43,95,160.34,85.08s10.16-13.81,16.53-13.26c14.79,1.27,15.23,10.69,19.19,12.05C218.56,91.57,204.49,105.94,204.49,105.94Z"/><path class="cls-17" d="M183.49,89.47h0a3.79,3.79,0,0,1,1.42,5.17l-1.7,3A3.78,3.78,0,0,1,178,99.05h0a3.79,3.79,0,0,1-1.42-5.17l1.7-3A3.79,3.79,0,0,1,183.49,89.47Z"/><line class="cls-18" x1="182.35" y1="91.74" x2="179.93" y2="95.99"/><line class="cls-10" x1="177.08" y1="124.62" x2="194.33" y2="127.2"/><line class="cls-10" x1="189.6" y1="126.49" x2="188.2" y2="120.31"/><path class="cls-16" d="M163.72,126.21s7.5-6.19,13.77,1.6-4.7,6.44-4.7,6.44"/><polygon class="cls-19" points="177.84 134.94 141.29 134.94 119.93 119.82 156.47 119.82 177.84 134.94"/><polygon class="cls-11" points="104.11 217.55 127.84 217.55 130.83 217.52 128.54 208.49 117.81 209.3 104.11 217.55"/><polygon class="cls-11" points="84.65 173.57 106.2 186.96 108.94 188.61 114.23 173.42 102.82 172.1 84.65 173.57"/><path class="cls-16" d="M142.11,141.38l38,23.06H131.43v44.78H110.76V154.83a13.4,13.4,0,0,1,13.34-13.45Z"/><path class="cls-16" d="M143.59,146.66l21.49,15.9A15.72,15.72,0,0,0,188.47,157l6.21-11.46L150.92,122.1a15.09,15.09,0,0,0-19.38,4.56l-32.1,43.6L116.1,184Z"/><rect class="cls-20" x="176.02" y="143.82" width="57.45" height="57.45"/><path class="cls-21" d="M136.48,141.38l28.6,21.18s3.45,3.12,10.26,3.12"/><path class="cls-21" d="M120,142.35a15.82,15.82,0,0,1,5.08-1h11.42"/><line class="cls-21" x1="111.06" y1="154.47" x2="111.06" y2="180.36"/><rect class="cls-19" x="119.93" y="93.19" width="36.55" height="27.12" rx="1.86" ry="1.86"/><line class="cls-10" x1="195.21" y1="144.46" x2="195.21" y2="185.61"/><circle class="cls-10" cx="185.71" cy="152.98" r="3.42"/><line class="cls-10" x1="189.13" y1="143.85" x2="233.47" y2="143.85"/><circle class="cls-12" cx="138.2" cy="106.18" r="3.46"/><path class="cls-12" d="M141.23,99.68a2.66,2.66,0,0,1-3.41,2.35,3.28,3.28,0,0,1,1.14-2A3.24,3.24,0,0,1,141.23,99.68Z"/></g></g></g></svg>