<svg xmlns="http://www.w3.org/2000/svg" viewBox="0 0 149.64 108.69"><defs><style>.cls-1{fill:#fff;}</style></defs><title>Asset 3</title><g id="Layer_2" data-name="Layer 2"><g id="Layer_1-2" data-name="Layer 1"><path class="cls-1" d="M46.58,2.54,47.19,12c.1,1.62-.85,3-2.06,3H5.23a2.15,2.15,0,0,1-1.89-1.65L.19,3.93C-.43,2.09.57,0,2.07,0H44.52C45.59,0,46.48,1.1,46.58,2.54Z"/><path class="cls-1" d="M52,23.68h93.15a2.79,2.79,0,0,0,2.7-2.09l1.68-6.51a2.79,2.79,0,0,0-2.7-3.49H28.63a2.79,2.79,0,0,0-2.76,3.18L31,50.35a2.79,2.79,0,0,0,2.76,2.39h82.87a2.79,2.79,0,0,1,2.7,3.45l-2.84,11.58a2.79,2.79,0,0,1-2.71,2.12H37a2.79,2.79,0,0,0-2.76,3.19l.61,4.32a2.8,2.8,0,0,0,2.76,2.39h93.12a2.79,2.79,0,0,0,2.7-2.09L142,44.38a2.79,2.79,0,0,0-2.7-3.49H52.78A2.79,2.79,0,0,1,50,38.29l-.76-11.63A2.79,2.79,0,0,1,52,23.68Z"/><path class="cls-1" d="M69.45,91.91H68.29a12.1,12.1,0,0,0-1.58-3.81l.82-.83a1.1,1.1,0,0,0,0-1.57l-2.2-2.2a1.11,1.11,0,0,0-1.58,0l-.82.82a12,12,0,0,0-3.81-1.58V81.58A1.12,1.12,0,0,0,58,80.46H54.89a1.12,1.12,0,0,0-1.11,1.12v1.16A12.1,12.1,0,0,0,50,84.32l-.82-.82a1.11,1.11,0,0,0-1.58,0l-2.2,2.2a1.12,1.12,0,0,0,0,1.57l.82.83a12.1,12.1,0,0,0-1.58,3.81H43.45A1.11,1.11,0,0,0,42.34,93v3.12a1.11,1.11,0,0,0,1.11,1.11h1.16a12.19,12.19,0,0,0,1.58,3.81l-.82.82a1.13,1.13,0,0,0,0,1.58l2.2,2.2a1.13,1.13,0,0,0,1.58,0l.82-.82a11.85,11.85,0,0,0,3.81,1.57v1.17a1.11,1.11,0,0,0,1.11,1.11H58a1.11,1.11,0,0,0,1.11-1.11v-1.19h0v0a11.76,11.76,0,0,0,3.81-1.57l.82.82a1.13,1.13,0,0,0,1.58,0l2.2-2.2a1.11,1.11,0,0,0,0-1.58l-.82-.82a12.19,12.19,0,0,0,1.58-3.81h1.16a1.11,1.11,0,0,0,1.11-1.11V93A1.11,1.11,0,0,0,69.45,91.91ZM56.45,102a7.42,7.42,0,1,1,7.41-7.41A7.41,7.41,0,0,1,56.45,102Z"/><path class="cls-1" d="M124.47,91.91h-1.16a12.1,12.1,0,0,0-1.58-3.81l.83-.83a1.12,1.12,0,0,0,0-1.57l-2.21-2.2a1.1,1.1,0,0,0-1.57,0l-.82.82a12.19,12.19,0,0,0-3.81-1.58V81.58A1.12,1.12,0,0,0,113,80.46h-3.11a1.13,1.13,0,0,0-1.12,1.12v1.16A12.19,12.19,0,0,0,105,84.32l-.82-.82a1.1,1.1,0,0,0-1.57,0l-2.21,2.2a1.12,1.12,0,0,0,0,1.57l.83.83a12.1,12.1,0,0,0-1.58,3.81H98.47A1.11,1.11,0,0,0,97.36,93v3.12a1.11,1.11,0,0,0,1.11,1.11h1.17a12.19,12.19,0,0,0,1.58,3.81l-.83.82a1.13,1.13,0,0,0,0,1.58l2.21,2.2a1.12,1.12,0,0,0,1.57,0l.82-.82a11.94,11.94,0,0,0,3.81,1.57v1.17a1.12,1.12,0,0,0,1.12,1.11H113a1.12,1.12,0,0,0,1.12-1.11v-1.19h0v0a11.94,11.94,0,0,0,3.81-1.57l.82.82a1.12,1.12,0,0,0,1.57,0l2.21-2.2a1.13,1.13,0,0,0,0-1.58l-.83-.82a12.19,12.19,0,0,0,1.58-3.81h1.16a1.12,1.12,0,0,0,1.12-1.11V93A1.12,1.12,0,0,0,124.47,91.91Zm-13,10.08a7.42,7.42,0,1,1,7.42-7.41A7.41,7.41,0,0,1,111.47,102Z"/></g></g></svg>