<svg xmlns="http://www.w3.org/2000/svg" viewBox="0 0 794.7 645.91"><defs><style>.cls-1{fill:#bbedff;}.cls-2{fill:#e6e6e6;}.cls-3{fill:#1fbaff;}.cls-4{fill:#55d3ff;}.cls-5{fill:#fff;}</style></defs><title>no-chat-illustration</title><g id="Layer_2" data-name="Layer 2"><g id="Layer_1-2" data-name="Layer 1"><ellipse class="cls-1" cx="406.98" cy="631.44" rx="387.72" ry="14.47"/><path class="cls-2" d="M526.16,108.8c-2-.06-4-.09-6-.09v-2c2,0,4,0,6,.1Z"/><path class="cls-2" d="M520.2,462.71c-2.69,0-5.4-.06-8.06-.18l.09-2c4,.18,8.06.22,12.06.13l.05,2C523,462.69,521.58,462.71,520.2,462.71Zm16.32-.74-.19-2c4-.37,8-.87,12-1.51l.32,2C544.63,461.09,540.56,461.6,536.52,462Zm-36.54-.4c-4-.46-8.09-1.06-12.07-1.78l.36-2c3.93.72,8,1.31,11.93,1.76Zm60.61-3.47-.45-2c3.9-.9,7.82-1.95,11.64-3.13l.59,1.92C568.5,456.12,564.53,457.19,560.59,458.1ZM476,457.17c-3.93-1-7.87-2.15-11.71-3.42l.63-1.9c3.8,1.26,7.69,2.4,11.57,3.39ZM583.9,451l-.71-1.87c3.73-1.44,7.47-3,11.09-4.7l.84,1.81c-3.66,1.71-7.44,3.31-11.22,4.76Zm-131.07-1.45c-3.76-1.54-7.51-3.23-11.14-5l.88-1.79c3.6,1.77,7.3,3.43,11,5ZM606,440.7,605,439c3.5-1.93,7-4,10.35-6.18l1.08,1.68C613.06,436.64,609.54,438.75,606,440.7Zm-175.06-2c-3.51-2-7-4.22-10.34-6.49l1.12-1.66c3.31,2.24,6.75,4.4,10.22,6.42ZM626.48,427.5l-1.19-1.6c3.21-2.39,6.38-4.93,9.41-7.53l1.31,1.51c-3.08,2.64-6.28,5.2-9.53,7.62Zm-215.76-2.43c-3.19-2.5-6.34-5.13-9.36-7.84l1.34-1.49c3,2.68,6.09,5.28,9.25,7.75ZM645,411.63l-1.4-1.42c2.85-2.81,5.65-5.75,8.31-8.75l1.49,1.33C650.71,405.82,647.88,408.79,645,411.63Zm-252.43-2.85c-2.82-2.91-5.58-5.95-8.2-9l1.53-1.3c2.59,3.06,5.31,6.06,8.11,8.93Zm268.62-15.39-1.59-1.23c2.45-3.16,4.82-6.46,7-9.79l1.66,1.11c-2.25,3.37-4.65,6.7-7.12,9.91ZM376.8,390.18c-2.41-3.26-4.72-6.65-6.9-10.06l1.69-1.07c2.15,3.37,4.44,6.72,6.82,9.94ZM674.73,373.1l-1.73-1c2-3.48,3.89-7.07,5.64-10.68l1.8.87c-1.77,3.65-3.69,7.28-5.71,10.8Zm-311-3.48c-1.94-3.56-3.77-7.23-5.45-10.9l1.81-.84c1.67,3.64,3.48,7.27,5.39,10.78Zm321.67-18.48-1.86-.75c1.5-3.72,2.88-7.54,4.12-11.35l1.9.61C688.3,343.51,686.9,347.38,685.39,351.14Zm-331.81-3.67c-1.43-3.79-2.74-7.68-3.91-11.56l1.92-.57c1.15,3.83,2.45,7.68,3.86,11.43Zm339.33-19.55-1.94-.48c1-3.89,1.82-7.86,2.52-11.8l2,.35C694.75,320,693.89,324,692.91,327.92Zm-346.34-3.81c-.89-3.94-1.66-8-2.27-12l2-.3c.61,3.95,1.37,7.94,2.26,11.84Zm350.6-20.19-2-.22c.43-4,.73-8,.88-12l2,.07C697.9,295.8,697.6,299.9,697.17,303.92ZM342.85,300c-.35-4-.56-8.13-.63-12.18l2,0c.07,4,.28,8.07.62,12.05Zm353.27-20.41c-.11-4-.36-8.06-.75-12l2-.19c.39,4,.65,8.12.76,12.17Zm-2.32-24c-.65-4-1.46-7.93-2.38-11.82l1.94-.46c.94,3.93,1.75,7.95,2.42,12Zm-5.58-23.45c-1.19-3.82-2.53-7.64-4-11.37l1.87-.72c1.47,3.77,2.82,7.63,4,11.5Zm-8.75-22.44c-1.71-3.62-3.56-7.23-5.51-10.72l1.74-1c2,3.53,3.85,7.18,5.58,10.84Zm-11.75-21c-2.19-3.36-4.52-6.68-6.93-9.87l1.6-1.21c2.43,3.23,4.79,6.59,7,10ZM653.2,169.44c-2.62-3-5.38-6-8.21-8.84l1.42-1.41c2.86,2.87,5.65,5.88,8.3,8.94Zm-17-17.1c-3-2.64-6.16-5.21-9.34-7.64l1.21-1.59c3.22,2.45,6.4,5,9.45,7.73ZM617,137.71c-3.34-2.21-6.81-4.33-10.29-6.3l1-1.74c3.53,2,7,4.14,10.42,6.37Zm-21-11.88c-3.62-1.73-7.34-3.35-11.06-4.83l.73-1.86c3.77,1.49,7.54,3.14,11.2,4.89ZM573.58,117c-3.81-1.22-7.72-2.31-11.61-3.26l.47-1.94c3.94,1,7.89,2.06,11.75,3.29Zm-23.42-5.7c-3.95-.68-8-1.23-11.95-1.63l.2-2c4,.41,8.1,1,12.09,1.64Z"/><path class="cls-2" d="M344.44,275.45l-2-.11c.1-2,.24-4,.41-6l2,.18C344.68,271.45,344.54,273.45,344.44,275.45Z"/><polygon class="cls-3" points="672.7 627.5 167.7 627.5 167.7 350.91 420.2 490.44 672.7 350.91 672.7 627.5"/><polygon class="cls-4" points="167.7 353.91 672.7 353.91 420.7 532.91 167.7 353.91"/><circle class="cls-5" cx="420.7" cy="532.5" r="21"/><path class="cls-3" d="M255.2,136a122.41,122.41,0,0,1,26-75.68,123,123,0,1,0,15.92,239.93A150.07,150.07,0,0,0,371.2,312l-39.3-28a123.72,123.72,0,0,0,28.25-26.36A123,123,0,0,1,255.2,136Z"/><path class="cls-4" d="M534.2,123a123,123,0,0,0-220-75.68,123,123,0,0,1,78.92,197.36,123.78,123.78,0,0,0,52-3.43A150.07,150.07,0,0,0,519.2,253l-39.3-28A122.92,122.92,0,0,0,534.2,123Z"/><path class="cls-5" d="M297.23,53.32a123,123,0,0,0,78.92,197.36A123,123,0,0,0,297.23,53.32Z"/><path class="cls-3" d="M59.84,628c-.23-.37-5.64-9.41-7.51-28.17-1.72-17.21-.62-46.23,14.43-86.7,28.5-76.67-6.57-138.53-6.93-139.15l1.73-1c.09.15,9.14,15.93,14.49,41a179.1,179.1,0,0,1-7.42,99.81C40.18,590.39,61.33,626.62,61.55,627Z"/><circle class="cls-4" cx="48.7" cy="356.5" r="13"/><circle class="cls-4" cx="89.7" cy="404.5" r="13"/><circle class="cls-4" cx="61.7" cy="436.5" r="13"/><circle class="cls-4" cx="95.7" cy="463.5" r="13"/><circle class="cls-4" cx="51.7" cy="505.5" r="13"/><path class="cls-3" d="M67.7,628.5s-13-32,26-56Z"/><path class="cls-3" d="M51.71,627.92s-5.92-34-51.71-33.74Z"/></g></g></svg>