<svg xmlns="http://www.w3.org/2000/svg" viewBox="0 0 2885.79 1552.26"><defs><style>.cls-1{fill:#abdbff;}.cls-2{fill:#82b378;}.cls-3{fill:#a8d29f;}.cls-4{fill:#3b96ea;}.cls-11,.cls-5{fill:#fff;}.cls-6{fill:#aedcff;}.cls-7{fill:#71bcff;}.cls-8{fill:#afcdfb;}.cls-9{font-size:80px;fill:#004782;}.cls-11,.cls-9{font-family:Montserrat-Regular, Montserrat;}.cls-10{fill:#ed858f;}.cls-11{font-size:150px;}.cls-12,.cls-13{fill:none;stroke:#fff;stroke-miterlimit:10;stroke-width:2px;}.cls-13{stroke-dasharray:11.9 11.9;}</style></defs><title>noRequestIllustration</title><g id="Layer_2" data-name="Layer 2"><g id="Слой_1" data-name="Слой 1"><path class="cls-1" d="M106.75,1551.44S-148.8,1162.76,130.88,742C379,368.6,770.56,665.49,992.42,285.58,1295-232.52,2804.82-30.19,2613.6,766.91c-92.53,385.74,420,399.76,229.33,785.35Z"/><path class="cls-2" d="M2014.19,774.76s-46.16-61.2,2.87-95.18c0,0,35.41-18.52,63.13-15.11,0,0-43.55,63.65-31.21,71s43.42-74.43,43.42-74.43,78.13-2.68,102.36,10.89c0,0-69.78,50.18-56,54.29s88.82-44.74,88.82-44.74,71.51,16.81,64.9,60.66-32.36,55.91-43.23,54.06-73.38-30.3-75.34-21.42,34.76,40.6,61.67,43.66c0,0-54.47,53-87.32,34.68s-34.14-44.22-54.65-55.18-38.53-12.06-30.43-1.69,45.71,22.33,56.45,44.43,20.67,37.19-14,29.73-90.06-36.65-90.73-66.17Z"/><path class="cls-2" d="M2256.89,741.14s-195.84-19.82-242.7,33.62c0,0-11.38,28.11-42.51,52.42l-5.38,12.25s36.25-33.75,48.56-35.16C2014.86,804.27,2000.17,733.53,2256.89,741.14Z"/><path class="cls-2" d="M1971.68,827.18s-44.09,28.53-50.49,84l7.61,1.16s17-56.73,42.78-77.73S1971.68,827.18,1971.68,827.18Z"/><path class="cls-3" d="M1787.72,628.46s-102.35-57.32-54.59-135.1c0,0,38.21-47.77,79.15-60.05,0,0-21.83,116,0,118.73s15-131,15-131,107.81-51.86,150.12-47.76c0,0-66.87,113.26-45,110.53s96.9-117.36,96.9-117.36,110.53-20.47,128.28,45-10.92,98.25-27.3,102.35-121.45,2.73-118.73,16.37,73.7,35.49,113.27,23.2c0,0-43.67,107.81-101,102.35s-75.06-40.94-110.54-43.67-61.41,6.83-43.67,16.38S1947.38,631.59,1976,656s51.86,39.38-1.36,50.3-148.75,4.09-167.86-36.85Z"/><path class="cls-2" d="M2107.05,432s-286.58,92.79-319.33,196.51c0,0,1.36,46.4-27.3,99.62v20.47s30-69.6,46.4-79.15C1806.82,669.4,1742.68,579.33,2107.05,432Z"/><path class="cls-2" d="M1760.42,728.08s-44.19,67.12-19,148.81l11.37-3s-11-90,12.09-135.24S1760.42,728.08,1760.42,728.08Z"/><path class="cls-3" d="M1248,657.83s119.11-50.4,76.19-141.43c0,0-36.08-57-79.46-75.4,0,0,9.87,129.76-14.39,130.11s-.57-145.39-.57-145.39S1117.89,355.83,1071,355.19c0,0,59.55,132.23,36,126.59s-92-140.35-92-140.35-118.65-35.83-146,33.8,0,109,17.5,115.47,132.77,17.71,128.12,32.33-85,30-126.93,11.7c0,0,34.79,123.44,98.26,124.4s87.21-35.77,126.43-34.46,66.47,14.92,45.87,23.24-85.62-6-120,17.23-61.6,36.87-4.6,55.28,162.51,22.51,188.41-20Z"/><path class="cls-2" d="M921.85,403.78S1224.66,540.21,1248,657.83c0,0-7.12,50.69,17.83,112.48l-2.48,22.44s-24.46-79.91-41.25-92.37C1222.08,700.38,1303.28,609.45,921.85,403.78Z"/><path class="cls-2" d="M1265.81,770.31s40.3,78.91,2.79,165.38L1256.51,931s23-97.28,3.15-149.67S1265.81,770.31,1265.81,770.31Z"/><path class="cls-2" d="M1003.67,950.37c-21-30.37-23.39-58.64-23.39-58.64s58.24-41.82,23.9-85.8c0,0-26.47-26.39-52.18-31,0,0,21.2,69,8.13,72.11S942,768.45,942,768.45s-69-24.12-94.44-18.74c0,0,48.36,64.22,34.92,64.06s-66.89-64.65-66.89-64.65-68.53-4.87-74.83,36.13,13.36,58.93,23.58,60.29,74-6.65,73.24,1.83S795.29,874,770.41,869.21c0,0,33.9,62.49,68.34,55.25s42.79-30,64.15-34.09,37.76-.06,27.64,7-47,7.22-62.77,24S839,948.78,872,951.77s90.63-7.7,99.43-33.87c.39-1.14.75-2.23,1.1-3.27a13.28,13.28,0,0,1-1.1,3.27c6.36,2.81,17.17,18.39,24.81,30.42,1.13,2.06,2.87,4.9,5.4,8.74h0c1.05,1.74,1.9,3.17,2.48,4.17,14.61,27.23,14.12,77.14,14.12,77.14l7.12,1.08C1035.11,988.1,1003.67,950.37,1003.67,950.37Z"/><path class="cls-4" d="M891.33,804.12l570.6-341.61a99.53,99.53,0,0,1,102.21,0l570.6,341.61v556.76L891.33,1298.53Z"/><rect class="cls-5" x="998.36" y="557.43" width="1029.35" height="889.56"/><circle class="cls-6" cx="1040.36" cy="596.24" r="10.58" transform="translate(-148.98 443.52) rotate(-22.5)"/><path class="cls-6" d="M1974.49,596.24a10.59,10.59,0,1,1,10.58,10.59A10.58,10.58,0,0,1,1974.49,596.24Z"/><rect class="cls-6" x="1040.36" y="595.09" width="944.71" height="2.3"/><rect class="cls-6" x="1039.21" y="592.04" width="2.3" height="944.71"/><rect class="cls-6" x="1984.29" y="592.04" width="2.3" height="944.71"/><polygon class="cls-7" points="2134.74 802.58 2134.74 1546.97 891.33 1546.97 891.33 802.58 1513.03 1174.78 2134.74 802.58"/><path class="cls-4" d="M891.33,1547l569.51-408.31a89.56,89.56,0,0,1,104.38,0L2134.74,1547Z"/><path class="cls-5" d="M275.05,1298.66h0c-6,0-11.81-.1-17.29-.25a1.15,1.15,0,0,1,.06-2.3c5.46.15,11.26.23,17.23.25a1.15,1.15,0,0,1,0,2.3Zm17.28-.13a1.15,1.15,0,0,1,0-2.3c5.53-.09,11.34-.24,17.27-.43a1.11,1.11,0,0,1,1.18,1.11,1.14,1.14,0,0,1-1.11,1.19c-5.94.19-11.76.34-17.3.43Zm-51.78-.86h-.07c-6.09-.36-11.89-.84-17.26-1.41a1.15,1.15,0,0,1-1-1.27,1.16,1.16,0,0,1,1.27-1c5.32.57,11.09,1,17.15,1.41a1.15,1.15,0,0,1-.07,2.3Zm86.34-.26a1.15,1.15,0,0,1-.06-2.3c5.54-.26,11.35-.56,17.25-.9a1.17,1.17,0,0,1,1.22,1.08,1.16,1.16,0,0,1-1.09,1.22c-5.91.34-11.72.64-17.27.9Zm34.51-2a1.15,1.15,0,0,1-.08-2.29q8.51-.59,17.23-1.24a1.15,1.15,0,0,1,.17,2.29q-8.73.66-17.24,1.24Zm-155.15-1.55-.2,0a135.86,135.86,0,0,1-16.92-4,1.15,1.15,0,0,1,.7-2.2,132.55,132.55,0,0,0,16.63,4,1.15,1.15,0,0,1-.21,2.29Zm189.61-1.07a1.16,1.16,0,0,1-1.15-1,1.15,1.15,0,0,1,1.05-1.24q8.52-.72,17.21-1.51a1.15,1.15,0,1,1,.21,2.29q-8.7.8-17.22,1.51Zm34.42-3.12a1.15,1.15,0,0,1-.11-2.3q8.54-.83,17.19-1.72a1.17,1.17,0,0,1,1.26,1,1.15,1.15,0,0,1-1,1.26q-8.65.9-17.2,1.72Zm34.38-3.53a1.15,1.15,0,0,1-.12-2.3q8.54-.91,17.16-1.89a1.15,1.15,0,0,1,1.28,1,1.16,1.16,0,0,1-1,1.28q-8.64,1-17.18,1.89Zm-290.73-3.6a1.15,1.15,0,0,1-.68-.22,21.93,21.93,0,0,1-7.15-8.17,51.42,51.42,0,0,1-2.56-6.5,1.15,1.15,0,1,1,2.2-.69,47.43,47.43,0,0,0,2.44,6.21,19.68,19.68,0,0,0,6.43,7.29,1.15,1.15,0,0,1-.68,2.08Zm325.07-.27a1.15,1.15,0,0,1-.14-2.29q8.55-1,17.16-2a1.15,1.15,0,1,1,.27,2.29l-17.16,2Zm34.3-4.16a1.15,1.15,0,0,1-.14-2.29q8.52-1.07,17.08-2.17a1.15,1.15,0,1,1,.29,2.28q-8.55,1.11-17.08,2.17Zm34.19-4.4a1.15,1.15,0,0,1-.15-2.29l17.13-2.29a1.15,1.15,0,0,1,1.3,1,1.17,1.17,0,0,1-1,1.3l-17.14,2.29Zm34.29-4.64a1.15,1.15,0,0,1-.15-2.29l17.11-2.39a1.15,1.15,0,0,1,.32,2.28l-17.12,2.39Zm34.22-4.83a1.15,1.15,0,0,1-.16-2.29l17.09-2.48a1.15,1.15,0,1,1,.34,2.27q-8.53,1.26-17.1,2.49Zm34.19-5A1.15,1.15,0,0,1,670,1257l17.09-2.56a1.15,1.15,0,1,1,.34,2.27q-8.51,1.29-17.09,2.57Zm34.17-5.17a1.15,1.15,0,0,1-.18-2.29l17.08-2.64a1.15,1.15,0,1,1,.35,2.27l-17.08,2.64Zm-540.85-2.62a.91.91,0,0,1-.23,0,1.14,1.14,0,0,1-.9-1.35,36.31,36.31,0,0,1,7.71-15.71,1.15,1.15,0,0,1,1.79,1.44,34,34,0,0,0-7.24,14.72A1.15,1.15,0,0,1,163.51,1251.45Zm575-2.71a1.15,1.15,0,0,1-.17-2.28q8.59-1.37,17.06-2.72a1.15,1.15,0,1,1,.36,2.27q-8.46,1.37-17.06,2.72Zm34.13-5.46a1.15,1.15,0,0,1-.18-2.29l17-2.78a1.15,1.15,0,1,1,.37,2.27l-17,2.78Zm34.11-5.6a1.17,1.17,0,0,1-1.14-1,1.15,1.15,0,0,1,.95-1.32l17.05-2.85a1.14,1.14,0,0,1,1.32.94,1.15,1.15,0,0,1-.94,1.33l-17.05,2.85Zm34.09-5.72a1.15,1.15,0,0,1-.19-2.29l17-2.9a1.15,1.15,0,1,1,.38,2.26l-17,2.91Zm34.07-5.85a1.15,1.15,0,0,1-.19-2.28l17-3a1.15,1.15,0,0,1,.4,2.26q-8.31,1.47-17,3Zm-691.17-1.39a1.15,1.15,0,0,1-.66-2.09,112.73,112.73,0,0,1,15.09-8.74,1.15,1.15,0,0,1,1,2.07,111.35,111.35,0,0,0-14.78,8.55A1.15,1.15,0,0,1,183.73,1224.72ZM909,1220.14a1.15,1.15,0,0,1-.2-2.28l17-3a1.14,1.14,0,0,1,1.33.93,1.16,1.16,0,0,1-.93,1.34l-17,3A.68.68,0,0,1,909,1220.14Zm34.06-6.09a1.15,1.15,0,0,1-.21-2.28l17-3.1a1.15,1.15,0,0,1,.41,2.27c-5.33,1-11,2-17,3.09A.71.71,0,0,1,943,1214.05Zm-728.46-4.73a1.15,1.15,0,0,1-.4-2.23c5.1-1.9,10.64-3.75,16.48-5.49a1.15,1.15,0,1,1,.66,2.2c-5.79,1.73-11.29,3.56-16.34,5.44A1.14,1.14,0,0,1,214.57,1209.32Zm762.52-1.49a1.16,1.16,0,0,1-.21-2.29l17-3.17a1.15,1.15,0,0,1,1.34.92,1.14,1.14,0,0,1-.92,1.34c-4.85.91-10.55,2-17.05,3.18Zm34.12-6.4a1.15,1.15,0,0,1-.22-2.28l2-.38a1.18,1.18,0,0,1,1.41,1.12c0,.95-.11,1-3,1.52Zm-763.54-2.1a1.15,1.15,0,0,1-.27-2.26c5.38-1.32,11.08-2.6,16.93-3.8a1.15,1.15,0,1,1,.46,2.25c-5.82,1.2-11.49,2.47-16.84,3.78A1.33,1.33,0,0,1,247.67,1199.33Zm33.9-7a1.15,1.15,0,0,1-.2-2.29c5.52-1,11.28-1.86,17.12-2.7a1.15,1.15,0,1,1,.34,2.27c-5.83.85-11.57,1.75-17.07,2.7Zm34.25-5a1.15,1.15,0,0,1-.14-2.29c5.67-.69,11.47-1.33,17.23-1.9a1.17,1.17,0,0,1,1.26,1,1.15,1.15,0,0,1-1,1.25c-5.74.57-11.52,1.21-17.18,1.89Zm34.45-3.41a1.15,1.15,0,0,1-.08-2.3c10.69-.82,17.34-1.1,17.41-1.1a1.12,1.12,0,0,1,1.19,1.1,1.15,1.15,0,0,1-1.1,1.2c-.06,0-6.68.28-17.33,1.1Z"/><polygon class="cls-8" points="1049.67 1262.04 1191.41 1181.71 1062.11 1189.35 1072.09 1211.19 1045.38 1240.78 1049.67 1262.04"/><polygon class="cls-5" points="1191.41 1181.71 1042.88 1208.93 934.69 1284.06 1191.41 1181.71"/><polygon class="cls-5" points="1062.11 1189.35 1191.41 1181.71 1056.16 1142.07 1062.11 1189.35"/><polygon class="cls-8" points="1816.4 206.58 1977.32 232.05 1871.41 157.47 1865.62 180.77 1826.29 187.28 1816.4 206.58"/><polygon class="cls-5" points="1977.32 232.05 1844.17 160.81 1712.74 152.18 1977.32 232.05"/><polygon class="cls-5" points="1871.41 157.47 1977.32 232.05 1896.22 116.78 1871.41 157.47"/><path class="cls-2" d="M2723.87,1546H2615.44c-5.81-4.93,4-16.12,14.3-16.87,4.46-.34,10.1.59,16.55,1.95,1.49-19.81,10-108.9,42.12-105.32,36.11,4,0,39.23-10.21,60.09-7.56,15.44-15.53,37.59-19.18,48.05,2.93.63,6,1.26,9.07,1.83,4.78-14.7,22.59-64.13,45.24-61.25,26.58,3.38,15.9,23.19-2.95,35-13.82,8.65-30.8,20.94-38.87,26.88a114.75,114.75,0,0,0,21.21,1.7C2711.29,1537.6,2720.36,1543.08,2723.87,1546Z"/><path class="cls-2" d="M293.89,1548.23S252.68,1435,223.74,1444.69,293.89,1548.23,293.89,1548.23Z"/><path class="cls-2" d="M278.11,1548.23c-3.51,0-69.28-68.26-73.66-50.39S278.11,1548.23,278.11,1548.23Z"/><path class="cls-2" d="M348.26,1548.23s-27.2-25-61.64-18.45-49.14,13.6-70.77,8.68-32.68,9.77-32.68,9.77Z"/><rect class="cls-5" x="951.54" y="1401.28" width="257.56" height="101.75" rx="21.66" ry="21.66"/><path class="cls-7" d="M1143.86,1426.58H982.49a3.29,3.29,0,0,1-3.28-3.28h0a3.28,3.28,0,0,1,3.28-3.27h161.37a3.29,3.29,0,0,1,3.28,3.27h0A3.29,3.29,0,0,1,1143.86,1426.58Z"/><path class="cls-7" d="M1011.11,1440.71H982.49a3.28,3.28,0,0,1-3.28-3.28h0a3.28,3.28,0,0,1,3.28-3.27h28.62a3.28,3.28,0,0,1,3.27,3.27h0A3.28,3.28,0,0,1,1011.11,1440.71Z"/><path class="cls-7" d="M1101.27,1440.71h-78.85a3.29,3.29,0,0,1-3.28-3.28h0a3.29,3.29,0,0,1,3.28-3.27h78.85a3.28,3.28,0,0,1,3.27,3.27h0A3.28,3.28,0,0,1,1101.27,1440.71Z"/><path class="cls-7" d="M1143.86,1466.88H982.49a3.28,3.28,0,0,1-3.28-3.28h0a3.28,3.28,0,0,1,3.28-3.27h161.37a3.29,3.29,0,0,1,3.28,3.27h0A3.29,3.29,0,0,1,1143.86,1466.88Z"/><path class="cls-7" d="M1041.06,1481H982.49a3.28,3.28,0,0,1-3.28-3.28h0a3.28,3.28,0,0,1,3.28-3.27h58.57a3.28,3.28,0,0,1,3.27,3.27h0A3.28,3.28,0,0,1,1041.06,1481Z"/><path class="cls-7" d="M1112.32,1481h-58.57a3.28,3.28,0,0,1-3.27-3.28h0a3.28,3.28,0,0,1,3.27-3.27h58.57a3.28,3.28,0,0,1,3.28,3.27h0A3.28,3.28,0,0,1,1112.32,1481Z"/><text class="cls-9" transform="translate(1219.59 870.26)">JOB REQUEST</text><circle class="cls-10" cx="2107.05" cy="866.4" r="140.16"/><path class="cls-5" d="M2082.4,896.76q-8.19-11.34-8.18-30.36t8.18-30.35q8.17-11.35,24.65-11.35t24.66,11.35q8.17,11.34,8.18,30.35t-8.18,30.36q-8.19,11.36-24.66,11.35T2082.4,896.76Zm9.73-52.13q-4.77,8.29-4.78,21.77t4.78,21.78q4.78,8.3,14.92,8.29t14.81-8.23q4.66-8.24,4.66-21.84t-4.66-21.83q-4.67-8.24-14.81-8.23T2092.13,844.63Z"/><text class="cls-11" transform="translate(2225.09 733.62)">!</text><path class="cls-12" d="M1432.62,949.32s-1.13-1.73-3.23-5.05"/><path class="cls-13" d="M1423.07,934.19c-82.79-133.5-650.62-1097.68,426.6-779.14"/><path class="cls-12" d="M1855.39,156.75l5.75,1.72"/></g></g></svg>