<svg xmlns="http://www.w3.org/2000/svg" viewBox="0 0 775.43 500"><defs><style>.cls-1{fill:#a2ebfc;}.cls-2{fill:#bbedff;}.cls-3{fill:#f2f2f2;}.cls-4{fill:#fff;}.cls-5{fill:#dcf8ff;}.cls-6{fill:#1babdd;}.cls-7{fill:#55d3ff;}.cls-8{fill:#ff6a5a;}</style></defs><title>no-notification-illustration</title><g id="Layer_2" data-name="Layer 2"><g id="Layer_1-2" data-name="Layer 1"><path class="cls-1" d="M327.93,74h210a3.5,3.5,0,0,1,3.5,3.5v231a3.5,3.5,0,0,1-3.5,3.5h-300a3.5,3.5,0,0,1-3.5-3.5v-141A93.5,93.5,0,0,1,327.93,74Z"/><ellipse class="cls-2" cx="387.72" cy="485.53" rx="387.72" ry="14.47"/><path class="cls-3" d="M390.85,488.35c9.26-7.82,14.88-20.17,13.41-32.2s-10.61-23.08-22.45-25.63S356.46,435,352.87,446.6c-2-22.31-4.27-45.55-16.13-64.54-10.73-17.2-29.33-29.51-49.49-31.71s-41.38,6.11-53.95,22-15.65,39-6.85,57.31c6.49,13.45,18.44,23.47,31,31.61a199.79,199.79,0,0,0,136.64,29.9"/><path class="cls-4" d="M253.23,356.92a329.56,329.56,0,0,1,96.86,131c.93,2.26-2.75,3.25-3.66,1a324.68,324.68,0,0,0-29.65-56.09,325.75,325.75,0,0,0-66.24-73.21C248.65,358.07,251.35,355.39,253.23,356.92Z"/><path class="cls-3" d="M397.25,488.35c-9.26-7.82-14.88-20.17-13.4-32.2s10.6-23.08,22.44-25.63,25.35,4.51,28.95,16.08c2-22.31,4.26-45.55,16.12-64.54,10.74-17.2,29.33-29.51,49.49-31.71s41.38,6.11,53.95,22,15.65,39,6.85,57.31c-6.49,13.45-18.44,23.47-31,31.61a199.79,199.79,0,0,1-136.64,29.9"/><path class="cls-4" d="M534.87,356.92A329.82,329.82,0,0,0,438,487.9c-.93,2.26,2.75,3.25,3.66,1a326,326,0,0,1,95.89-129.3c1.9-1.54-.81-4.22-2.69-2.69Z"/><circle class="cls-3" cx="424.71" cy="191" r="31"/><path class="cls-5" d="M329.13,84.14H542.71V95.82H356.39A83.41,83.41,0,0,0,273,179.24h0V312H249.6a3.89,3.89,0,0,1-3.89-3.9V167.56a83.42,83.42,0,0,1,83.42-83.42Z"/><path class="cls-6" d="M370.21,489V311.5h52V489a4.51,4.51,0,0,1-4.5,4.5h-43A4.51,4.51,0,0,1,370.21,489Z"/><path class="cls-7" d="M424.71,207a18,18,0,0,1-18-18V60a3,3,0,0,0-3-3h-70a5,5,0,0,1-5-5V5a5,5,0,0,1,5-5h104a5,5,0,0,1,5,5V189A18,18,0,0,1,424.71,207Z"/><path class="cls-6" d="M549.71,75h0a56.89,56.89,0,0,1,57,56.76V296.07h112a17,17,0,0,1,17,16.93h-243V131.76A56.89,56.89,0,0,1,549.71,75Z"/><circle class="cls-4" cx="424.71" cy="189" r="7"/><circle class="cls-7" cx="606.96" cy="242.25" r="23.47"/><path class="cls-7" d="M626.49,210.94a20.94,20.94,0,0,1-20-27.08l33.6-109.28a27.07,27.07,0,0,1,1.16-3.11A27.78,27.78,0,0,1,692,94L645.64,198.5a21,21,0,0,1-19.15,12.44Z"/><circle class="cls-8" cx="492.9" cy="302.18" r="36.53"/><path class="cls-3" d="M484.78,313.12q-3-4.12-3-11t3-11q3-4.12,9-4.12t8.95,4.12q3,4.11,3,11t-3,11q-3,4.13-8.95,4.12T484.78,313.12Zm3.53-18.93a18.93,18.93,0,0,0,0,15.81,5.82,5.82,0,0,0,5.42,3,5.72,5.72,0,0,0,5.37-3,19.32,19.32,0,0,0,0-15.85,5.73,5.73,0,0,0-5.37-3A5.84,5.84,0,0,0,488.31,294.19Z"/></g></g></svg>