<svg xmlns="http://www.w3.org/2000/svg" viewBox="0 0 441.43 374.8"><defs><style>.cls-1{fill:#ccc;}.cls-2{fill:#fff;}.cls-3{fill:#1fbaff;}.cls-4{fill:#55d3ff;}.cls-5{fill:#3f3d56;}.cls-6{fill:#dcf8ff;}.cls-7{fill:#e6e6e6;}</style></defs><title>no-pending-request-illustration</title><g id="Layer_2" data-name="Layer 2"><g id="Layer_1-2" data-name="Layer 1"><ellipse class="cls-1" cx="220.72" cy="365.62" rx="220.72" ry="9.18"/><g id="_Group_" data-name="&lt;Group&gt;"><path class="cls-2" d="M94.8,184.39,37,151.9a11.71,11.71,0,0,1,1-1L94.8,182.81l8.58,4.82L221.7,254.12a9,9,0,0,0,1.22.57,5.05,5.05,0,0,0,.55.18,9.1,9.1,0,0,0,7.11-.75L357.07,183l8.58-4.82L414,151A10.37,10.37,0,0,1,415,152l-49.32,27.73-8.58,4.83L231.25,255.32a10.49,10.49,0,0,1-5.11,1.32H226a10.68,10.68,0,0,1-3.22-.56c-.3-.1-.6-.22-.89-.35a9.12,9.12,0,0,1-.83-.41L103.38,189.21Z"/><path class="cls-3" d="M221.7,254.12,103.38,187.63l-8.58-4.82L38,150.86A10.27,10.27,0,0,1,45,148l159.15-91.7a44,44,0,0,1,43.93,0L406.85,148A10.23,10.23,0,0,1,414,151l-48.38,27.21L357.07,183,230.58,254.12a9.1,9.1,0,0,1-7.11.75,5.05,5.05,0,0,1-.55-.18A9,9,0,0,1,221.7,254.12Z"/><path class="cls-4" d="M37.45,360.3,220.63,258.77a11,11,0,0,1,10.62,0L414.83,359.82a10.3,10.3,0,0,1-8,3.81H45A10.34,10.34,0,0,1,37.45,360.3Z"/><path class="cls-5" d="M36.23,150.69a.69.69,0,0,1,.94-.26l.78.43a11.71,11.71,0,0,0-1,1l-.5-.27A.7.7,0,0,1,36.23,150.69Z"/><path class="cls-3" d="M415.45,360.16c-.67.94-1.35,1.87-2,2.8a11.52,11.52,0,0,1-6.57,2H45a11.62,11.62,0,0,1-6.32-1.87c-.63-.82-1.25-1.65-1.87-2.48l.62-.35A10.34,10.34,0,0,0,45,363.63H406.85a10.3,10.3,0,0,0,8-3.81Z"/><path class="cls-6" d="M103.38,189.21,221,255.32a9.12,9.12,0,0,0,.83.41c.29.13.59.25.89.35a10.68,10.68,0,0,0,3.22.56v.76a11,11,0,0,0-5.32,1.37L37.45,360.3a10.25,10.25,0,0,1-2.73-7v-195A10.24,10.24,0,0,1,37,151.9L94.8,184.39Z"/><path class="cls-6" d="M226.14,256.64a10.49,10.49,0,0,0,5.11-1.32l125.82-70.74,8.58-4.83L415,152a10.24,10.24,0,0,1,2.17,6.32v195a10.26,10.26,0,0,1-2.31,6.49L231.25,258.76a11,11,0,0,0-5.3-1.36v-.76Z"/><path class="cls-5" d="M415,152A10.37,10.37,0,0,0,414,151l.77-.43a.7.7,0,0,1,.94.26.71.71,0,0,1-.26.94Z"/></g><path class="cls-2" d="M226.14,257a10.73,10.73,0,0,1-3.51-.59l-.21-.07,0-.47-.39.19-.14.06-.14-.06a8.46,8.46,0,0,1-.85-.43l-126.41-71v-145a12.72,12.72,0,0,1,12.71-12.7H344.71a12.72,12.72,0,0,1,12.7,12.7V184.78l-.17.09L231.42,255.62A10.82,10.82,0,0,1,226.14,257Z"/><path class="cls-3" d="M146,71.83H126.77a5.49,5.49,0,1,1,0-11H146a5.49,5.49,0,1,1,0,11Z"/><path class="cls-7" d="M168.66,90.37H126.77a5.49,5.49,0,1,1,0-11h41.89a5.49,5.49,0,1,1,0,11Z"/><path class="cls-3" d="M285.66,139.8H166.89a5.49,5.49,0,1,1,0-11H285.66a5.49,5.49,0,1,1,0,11Z"/><path class="cls-7" d="M296.65,161.09H155.22a5.5,5.5,0,1,1,0-11H296.65a5.5,5.5,0,0,1,0,11Z"/><path class="cls-7" d="M296.65,181.68H155.22a5.49,5.49,0,1,1,0-11H296.65a5.49,5.49,0,0,1,0,11Z"/><circle class="cls-3" cx="350.58" cy="26.2" r="26.2"/><path class="cls-2" d="M347.69,32.7l-.08-1.07c-.25-2.22.49-4.65,2.55-7.12C352,22.33,353,20.73,353,18.87c0-2.09-1.32-3.49-3.91-3.53A7.34,7.34,0,0,0,345,16.61L344,14a10.8,10.8,0,0,1,5.89-1.65c4.73,0,6.87,2.93,6.87,6.05,0,2.8-1.56,4.81-3.54,7.16-1.81,2.14-2.47,4-2.34,6.05l0,1.07Zm-.91,5.76a2.43,2.43,0,0,1,2.47-2.59,2.57,2.57,0,1,1-2.47,2.59Z"/></g></g></svg>