<svg xmlns="http://www.w3.org/2000/svg" xmlns:xlink="http://www.w3.org/1999/xlink" viewBox="0 0 401.9 306"><defs><style>.cls-1,.cls-10,.cls-7,.cls-9{fill:#fff;}.cls-1,.cls-11,.cls-12,.cls-2{isolation:isolate;}.cls-11,.cls-12,.cls-2,.cls-5{fill:#35d9ff;}.cls-2{opacity:0.25;}.cls-3{fill:#00273f;}.cls-4{fill:#fcbdba;}.cls-6{fill:#473f47;}.cls-8{fill:url(#linear-gradient);}.cls-9{font-size:14.26px;}.cls-10,.cls-9{font-family:Poppins-Medium, Poppins;}.cls-10{font-size:19.78px;}.cls-11{opacity:0.31;}.cls-12{opacity:0.18;}.cls-13{fill:none;stroke:#fff;stroke-miterlimit:10;stroke-width:1.45px;}.cls-14{opacity:0.41;}.cls-15{fill:url(#linear-gradient-2);}.cls-16{fill:#17ceff;}</style><linearGradient id="linear-gradient" x1="129.64" y1="-3406.17" x2="131.73" y2="-3334.08" gradientTransform="matrix(1, 0, 0, -1, 44.15, -3267.75)" gradientUnits="userSpaceOnUse"><stop offset="0" stop-opacity="0"/><stop offset="0.99"/></linearGradient><linearGradient id="linear-gradient-2" x1="224.88" y1="-3487.32" x2="379.35" y2="-2868.46" gradientTransform="matrix(1.09, 0, 0, -1.09, -85.14, -3413.85)" gradientUnits="userSpaceOnUse"><stop offset="0.01"/><stop offset="0.08" stop-opacity="0.69"/><stop offset="0.21" stop-opacity="0.32"/><stop offset="1" stop-opacity="0"/></linearGradient></defs><title>no-result-found-illustration</title><g id="Layer_2" data-name="Layer 2"><g id="Layer_1-2" data-name="Layer 1"><path class="cls-1" d="M178.18.3c-1.87-.07-3.73-.11-5.58-.15-29.68-.62-60,.38-88,10.15S30.76,39.89,20,67.52c-5.58,14.34-6.9,29.91-9,45.16C7.13,141.27.37,169.61,0,198.45s6.53,59.2,26.33,80.21c34.36,36.5,82,14.87,122.89,5a171.61,171.61,0,0,1,74-1.32c16.14,3.27,31.72,8.89,47.85,12.35,11.6,2.49,23.67,3.86,35.49,2.32,11.36-1.46,20.11-6.88,30.45-11.24,19.69-8.35,39.59-19,52.14-36.92a73.35,73.35,0,0,0,12.48-48c-3.86-44.76-45.67-63.55-67.26-98.73C321.76,81.66,313.19,58.48,297,40.75,268,9,221.53,1.68,178.18.3Z"/><path class="cls-2" d="M178.18.3c-1.87-.07-3.73-.11-5.58-.15-29.68-.62-60,.38-88,10.15S30.76,39.89,20,67.52c-5.58,14.34-6.9,29.91-9,45.16C7.13,141.27.37,169.61,0,198.45s6.53,59.2,26.33,80.21c34.36,36.5,82,14.87,122.89,5a171.61,171.61,0,0,1,74-1.32c16.14,3.27,31.72,8.89,47.85,12.35,11.6,2.49,23.67,3.86,35.49,2.32,11.36-1.46,20.11-6.88,30.45-11.24,19.69-8.35,39.59-19,52.14-36.92a73.35,73.35,0,0,0,12.48-48c-3.86-44.76-45.67-63.55-67.26-98.73C321.76,81.66,313.19,58.48,297,40.75,268,9,221.53,1.68,178.18.3Z"/><path class="cls-3" d="M330.53,289.4a3.71,3.71,0,0,1,.32,4.16,3.43,3.43,0,0,1-3.76,1.51,1.74,1.74,0,0,1-.68-.34c-.4-.39-.46-1.09-.84-1.48a2.78,2.78,0,0,0-1.38-.61,10.07,10.07,0,0,1-2.52-1.36,1,1,0,0,1-.31-.28,1,1,0,0,1-.12-.47,3.46,3.46,0,0,1,.36-2.46,2.81,2.81,0,0,1,.82-.68,4,4,0,0,1,2-.6,5.18,5.18,0,0,1,1.6.37,12,12,0,0,1,4,2"/><path class="cls-3" d="M302.11,300.2a9.57,9.57,0,0,0-2-.14,2.46,2.46,0,0,0-1.76.84,2.57,2.57,0,0,0,.47,3.27,5.94,5.94,0,0,0,3.21,1.32,4.72,4.72,0,0,0,2.18,0c.9-.26,1.76-1,2.66-.73a4.21,4.21,0,0,1,1.09.67,3,3,0,0,0,4.07-.51,3.79,3.79,0,0,0,.55-1.29c.38-1.44.21-3.26-1-4.1-1.41-1-2.51-.31-3.87.16A13.49,13.49,0,0,1,302.11,300.2Z"/><path class="cls-4" d="M303.28,292.1l3.55,8.7s2,1.22,3.48.68l1.42-.59-1.25-12.14Z"/><path class="cls-5" d="M242.26,45.41v222a19.39,19.39,0,0,1-19.39,19.39H126.78a19.39,19.39,0,0,1-19.39-19.39v-222A19.39,19.39,0,0,1,126.77,26h96.1A19.39,19.39,0,0,1,242.26,45.4Z"/><rect class="cls-6" x="110.05" y="29.3" width="129.55" height="253.81" rx="18.75" ry="18.75"/><path class="cls-7" d="M236.08,50.17V259.63A17.92,17.92,0,0,1,218,277.36H131.74a18.15,18.15,0,0,1-9-2.35,17.66,17.66,0,0,1-9.12-15.38V50.17a17.94,17.94,0,0,1,18.11-17.73h14.57V35a8.59,8.59,0,0,0,5.44,7.8,9,9,0,0,0,3.32.63h40.06a8.7,8.7,0,0,0,8.76-8.57V32.44H218a18.25,18.25,0,0,1,12.5,4.92A17.51,17.51,0,0,1,236.08,50.17Z"/><rect class="cls-5" x="126.84" y="55.42" width="97.54" height="61.45" rx="3.86" ry="3.86"/><rect class="cls-8" x="126.84" y="55.42" width="97.54" height="61.45" rx="3.86" ry="3.86"/><rect class="cls-5" x="126.84" y="52.96" width="97.54" height="61.45" rx="3.86" ry="3.86"/><text class="cls-9" transform="translate(142.18 76.29)">No Result</text><text class="cls-10" transform="translate(141.79 100.62)">FOUND</text><rect class="cls-11" x="128.84" y="174.92" width="53.28" height="3.16" rx="1.58" ry="1.58"/><rect class="cls-11" x="128.84" y="182.65" width="53.28" height="3.16" rx="1.58" ry="1.58"/><rect class="cls-12" x="107.38" y="146.44" width="134.88" height="8.47"/><path class="cls-5" d="M87.21,125.07H251.49a11,11,0,0,1,11,11h0a11,11,0,0,1-11,11H87.21v-22Z"/><rect class="cls-7" x="87.21" y="125.07" width="132.65" height="22.02"/><circle class="cls-13" cx="239.56" cy="134.83" r="5.32"/><path class="cls-13" d="M244.42,143.48l-2.18-4.06"/><path class="cls-5" d="M131.38,167.08H212a2.55,2.55,0,0,1,2.55,2.54h0a2.55,2.55,0,0,1-2.55,2.55H131.38a2.55,2.55,0,0,1-2.54-2.55h0A2.54,2.54,0,0,1,131.38,167.08Z"/><rect class="cls-11" x="128.84" y="201.53" width="53.28" height="3.16" rx="1.58" ry="1.58"/><rect class="cls-11" x="128.84" y="209.26" width="53.28" height="3.16" rx="1.58" ry="1.58"/><path class="cls-5" d="M131.38,193.68H212a2.55,2.55,0,0,1,2.55,2.54h0a2.55,2.55,0,0,1-2.55,2.55H131.38a2.55,2.55,0,0,1-2.54-2.55h0A2.54,2.54,0,0,1,131.38,193.68Z"/><rect class="cls-11" x="128.84" y="228.13" width="53.28" height="3.16" rx="1.58" ry="1.58"/><rect class="cls-11" x="128.84" y="235.87" width="53.28" height="3.16" rx="1.58" ry="1.58"/><path class="cls-5" d="M131.38,220.29H212a2.55,2.55,0,0,1,2.55,2.54h0a2.55,2.55,0,0,1-2.55,2.55H131.38a2.55,2.55,0,0,1-2.54-2.55h0A2.54,2.54,0,0,1,131.38,220.29Z"/><g class="cls-14"><path class="cls-15" d="M230.59,102.94a51.7,51.7,0,0,1,15.86,2.49V98.14a58.88,58.88,0,1,0,0,113.42v-7.29a51.9,51.9,0,1,1-15.86-101.33Z"/></g><path class="cls-16" d="M233.73,210.89A58.89,58.89,0,1,1,292.62,152v.06A59,59,0,0,1,233.73,210.89Zm0-110.79a51.91,51.91,0,1,0,51.91,52,51.91,51.91,0,0,0-51.91-52Z"/><path class="cls-5" d="M315.38,241.57a6.54,6.54,0,0,1-4.66-1.95l-42.08-42.7a6.53,6.53,0,0,1,9.27-9.19l0,0L320,230.47a6.53,6.53,0,0,1-4.64,11.1Z"/><path class="cls-6" d="M335.54,255.14a7.68,7.68,0,0,1-10.86-.06h0l-49.54-50.29a5.8,5.8,0,0,1-.75-.89c-.13-.18-.25-.35-.36-.52a3.36,3.36,0,0,1,.3-3.85,28.85,28.85,0,0,1,3.15-3.2,26.77,26.77,0,0,1,4.19-3.06,3.39,3.39,0,0,1,4,.34h0c.15.12.29.25.43.38l49.63,50.3a7.68,7.68,0,0,1-.11,10.86Z"/><path class="cls-4" d="M327.71,282.73l2.42,8.35s-.45,2.1-3,1.22-4.72-7.46-4.72-7.46Z"/><path class="cls-4" d="M276.93,203.66c-.24-.32-.55-.66-.93-.61s-.45.21-.68.14a.65.65,0,0,1-.34-.27,11.39,11.39,0,0,0-1.8-1.53,3.08,3.08,0,0,0-1.39-.71,1.9,1.9,0,0,0-1.82,1.09,3.24,3.24,0,0,0-.22,2.17,7.91,7.91,0,0,0,.87,2.08,5.7,5.7,0,0,0,.88,1.35c1.08,1.18,2.89,1.38,4.35,2.11a1.28,1.28,0,0,0,.51.17,1,1,0,0,0,.73-.53,5.64,5.64,0,0,0,1-2.72A4.74,4.74,0,0,0,276.93,203.66Z"/><path class="cls-4" d="M291.07,194.23a.68.68,0,0,0-.52.06,1.14,1.14,0,0,0-.24.25c-.3.32-.8.33-1.22.52A2.13,2.13,0,0,0,288,196.4a6.43,6.43,0,0,0-.18,1.75,2.21,2.21,0,0,0,.1.92.79.79,0,0,0,.67.54,1.62,1.62,0,0,0,.69-.29,2.06,2.06,0,0,1,1.36-.22,7.68,7.68,0,0,1,1.69.8,1.79,1.79,0,0,0,1.79,0,2.17,2.17,0,0,0,.55-.79c.49-1.08,1.09-2.29,0-3.17A7.4,7.4,0,0,0,291.07,194.23Z"/><path class="cls-6" d="M323.39,234.2a122.39,122.39,0,0,1-1.53,13.64c-1,4.49-1.57,9.57-1.57,9.57l9.06,26.1s-5.51,3.67-9.06,2.25-12.52-21.44-12.52-21.44l-3.41-22.76,9-10.38Z"/><path class="cls-6" d="M298.39,232.38s-6.46,21.17-6.46,26.68,7.74,32.62,7.74,32.62,8.41,2.85,10.38,0l2-2.85-4.73-27.29s6.69-14.25,7.88-17.91a39.17,39.17,0,0,0,1.53-6.93Z"/><path class="cls-4" d="M301.11,174.38a14.28,14.28,0,0,0-1.43,4.82,4.8,4.8,0,0,0,1.93,4.35,5.71,5.71,0,0,1,1.14.74c1.22,1.24-.17,3.49.52,5.1a2.4,2.4,0,0,0,3,1.09,4,4,0,0,0,2.18-2.64,12.35,12.35,0,0,0,.41-3.58l.12-7.19a9.22,9.22,0,0,0-.73-4.69A4.67,4.67,0,0,0,303.9,170C302.23,170.39,301.72,173,301.11,174.38Z"/><path class="cls-5" d="M276,210.27s13.79,12.32,14.77,12.32,7.1-7.74,7.1-7.74l.49,17.52A41.6,41.6,0,0,0,303.7,235c3,1.22,6.75,2.35,10.05,2.05,6.69-.61,9.64-2.85,9.64-2.85l-4.12-41.26s-7.81-5.63-10.47-4.77a16.5,16.5,0,0,1-5.78,0c-3.85-.5-7.78,4.77-7.78,4.77l-5.13,16.82-12-4.26A4.6,4.6,0,0,0,276,210.27Z"/><path class="cls-3" d="M302.27,166.59c1.45-1.32,4.72-1.86,6.32-2a8.73,8.73,0,0,1,6.91,2c2.61,2.48,2.88,6.52,2.85,10.24s-.09,7.71,2.08,10.54c1.87,2.41,4.93,3.41,7.31,5.27a10.29,10.29,0,0,1,4.13,7.42c.56,11.18-16.52,6.38-22.16,3.89a8.53,8.53,0,0,1-2.71-1.67,7.93,7.93,0,0,1-1.79-3.17,16.76,16.76,0,0,1,.63-12.18c.26-.56.54-1.27.18-1.77a1.87,1.87,0,0,0-.71-.5,4.08,4.08,0,0,1-2.52-3.62,7,7,0,0,1,1.51-3.11,3.58,3.58,0,0,0,.67-3.26c-.39-.88-1.33-1.32-2-2-1.22-1.09-2.1-4-1.09-5.58A2.6,2.6,0,0,1,302.27,166.59Z"/></g></g></svg>