<svg xmlns="http://www.w3.org/2000/svg" viewBox="0 0 473.33 271"><defs><style>.cls-1{fill:#ccc;}.cls-2{fill:#fff;}.cls-3{fill:#1fbaff;}.cls-4{fill:#f2f2f2;}</style></defs><title>no-upcoming-request-illustration</title><g id="Layer_2" data-name="Layer 2"><g id="Layer_1-2" data-name="Layer 1"><ellipse class="cls-1" cx="197.28" cy="261.72" rx="197.28" ry="9.28"/><path class="cls-1" d="M472.52,120.29a36.18,36.18,0,0,1-6.42,12.58h0c-.27.35-.54.71-.83,1.05h0a73.87,73.87,0,0,1-6.48,7,121.77,121.77,0,0,1-27.86,19.9c-16,8.37-33.9,13.31-51.62,13.59h-1.05V150.71c.34-.65.69-1.3,1.05-1.94A114.08,114.08,0,0,1,396,125.9c.15-.18.31-.35.48-.52q3.66-3.85,7.68-7.36a110,110,0,0,1,35.13-20.8,47.2,47.2,0,0,1,13.15-2.93c.66,0,1.3-.05,2,0a19.56,19.56,0,0,1,11.35,3.41,16.41,16.41,0,0,1,3.2,3c.32.41.62.82.9,1.24h0C473.34,107.1,474.14,114.15,472.52,120.29Z"/><rect class="cls-2" x="28" y="22.45" width="351.31" height="238.55" rx="15.92" ry="15.92"/><path class="cls-1" d="M455.92,197.37a36.15,36.15,0,0,1-11.53,8.16h0c-.4.2-.81.38-1.22.56h-.08a73.8,73.8,0,0,1-8.91,3.19,123.46,123.46,0,0,1-54.86,2.86l-1.05-.19V169.61l1.05-.43q3.42-1.41,6.92-2.6,5-1.72,10.23-3a110.76,110.76,0,0,1,34.47-2.79c2.11.16,4.2.39,6.3.68a47.35,47.35,0,0,1,13,3.53h0q.88.41,1.74.87a19.54,19.54,0,0,1,8.47,8.29,16.18,16.18,0,0,1,1.42,4.17h0c.1.5.17,1,.23,1.51C462.77,186.07,460.21,192.69,455.92,197.37Z"/><path class="cls-2" d="M462.11,179.89l-.16,0q-13.41.59-26.78,1.75h-.12q-13.74,1.19-27.42,3l-1.14.15q-9.47,1.26-18.88,2.8c-2.78.45-5.54.92-8.3,1.42l-1.05.18v-1.58l1.05-.19Q393.1,185,407,183.17q3.5-.46,7-.89,10.11-1.22,20.26-2.11l1.48-.12q13-1.11,26-1.68h.13C462.71,178.46,462.89,179.71,462.11,179.89Z"/><path class="cls-2" d="M443.54,204.55a42.74,42.74,0,0,1-30-12.46,41,41,0,0,1-5.84-7.34c-.53-.85-1.77.09-1.25.93A44.38,44.38,0,0,0,434,205.06a42.46,42.46,0,0,0,9.73,1c1,0,.79-1.55-.2-1.55Z"/><path class="cls-2" d="M396.46,163.62a.9.9,0,0,1-.65.59,33.88,33.88,0,0,0-7.35,2.87,35.38,35.38,0,0,0-9.15,6.92c-.14.14-.28.28-.41.43s-.43.46-.64.7v-2.27c.34-.36.69-.71,1.05-1a37.17,37.17,0,0,1,6.92-5.24Q391.27,164.86,396.46,163.62Z"/><path class="cls-2" d="M469.88,101.93h0l-.12.08q-11.6,6.75-22.89,14h0a.33.33,0,0,1-.1.06q-11.61,7.44-22.89,15.38l-.95.67q-7.8,5.5-15.42,11.24-14.42,10.86-28.18,22.51l-1.05.89v-2l1.05-.89q5.26-4.46,10.64-8.79l3.23-2.57q14.32-11.4,29.3-22h0q2.94-2.09,5.9-4.12,8.4-5.78,17-11.28l1.25-.8q11-7,22.26-13.57l.12-.06C469.76,100.38,470.49,101.41,469.88,101.93Z"/><path class="cls-2" d="M391.38,151.5a35.46,35.46,0,0,1-.5-8.29,37.58,37.58,0,0,1,5.63-17.82q3.66-3.87,7.68-7.37a.9.9,0,0,1-.3.83,33.78,33.78,0,0,0-5.18,6,36.08,36.08,0,0,0-5.78,26.57.62.62,0,0,1-.17.59.84.84,0,0,1-1.19-.08A.72.72,0,0,1,391.38,151.5Z"/><path class="cls-1" d="M399,110.65h0c0,.45-.08.9-.12,1.34h0a74.67,74.67,0,0,1-1.7,9.38c-.36,1.51-.76,3-1.19,4.52-.06.19-.11.38-.17.57h0a122,122,0,0,1-4.56,12.86,125.34,125.34,0,0,1-12,22c-.34.51-.69,1-1.05,1.52V81.15c.35,0,.7,0,1.05,0a4.26,4.26,0,0,1,.5,0,15.6,15.6,0,0,1,4.32.84c.49.16,1,.34,1.43.54,5.7,2.5,10.17,8,12.12,14A36.42,36.42,0,0,1,399,110.65Z"/><path class="cls-2" d="M385.56,82.54a.66.66,0,0,1-.05.15q-3.18,6.16-6.2,12.39l-1.05,2.15V93.68c.35-.71.69-1.42,1.05-2.13q2.34-4.74,4.76-9.45a.33.33,0,0,1,.06-.1C384.61,81.31,385.8,81.78,385.56,82.54Z"/><path class="cls-2" d="M399.21,111.49c-.09.17-.19.33-.29.5a42.19,42.19,0,0,1-5.44,7.43,44.84,44.84,0,0,1-14.17,10.32c-.35.17-.7.33-1.05.47v-1.69l1.05-.49a42.22,42.22,0,0,0,18.46-17.13.85.85,0,0,1,1.17-.31l.1.06a.61.61,0,0,1,.17.84Z"/><path class="cls-3" d="M379.31,17.23V56.9h-1.05v-.42H29v.42H28V17.23A17.25,17.25,0,0,1,45.23,0H362.08A17.25,17.25,0,0,1,379.31,17.23Z"/><path class="cls-2" d="M362.08,0H45.23A17.25,17.25,0,0,0,28,17.23V243.77A17.25,17.25,0,0,0,45.23,261H362.08a17.25,17.25,0,0,0,17.23-17.23V17.23A17.25,17.25,0,0,0,362.08,0Zm16.18,243.77A16.21,16.21,0,0,1,362.08,260H45.23A16.22,16.22,0,0,1,29,243.77V17.23A16.22,16.22,0,0,1,45.23,1H362.08a16.21,16.21,0,0,1,16.18,16.19Z"/><circle class="cls-2" cx="98.99" cy="28.45" r="10.44"/><circle class="cls-2" cx="308.31" cy="28.45" r="10.44"/><path class="cls-3" d="M129.16,144.86H67.05a9.93,9.93,0,0,1-9.92-9.93V105.58a9.93,9.93,0,0,1,9.92-9.93h62.11a10,10,0,0,1,9.92,9.93v29.35A10,10,0,0,1,129.16,144.86Z"/><path class="cls-3" d="M234.81,144.86H172.7a9.93,9.93,0,0,1-9.92-9.93V105.58a9.93,9.93,0,0,1,9.92-9.93h62.11a9.93,9.93,0,0,1,9.92,9.93v29.35A9.93,9.93,0,0,1,234.81,144.86Z"/><path class="cls-4" d="M234.81,220.7H172.7a10.23,10.23,0,0,1-10.22-10.23V181.12a10.24,10.24,0,0,1,10.22-10.23h62.11A10.24,10.24,0,0,1,245,181.12v29.35A10.23,10.23,0,0,1,234.81,220.7Z"/><path class="cls-4" d="M129,220.7H66.85a10.24,10.24,0,0,1-10.23-10.23V181.12a10.25,10.25,0,0,1,10.23-10.23H129a10.25,10.25,0,0,1,10.23,10.23v29.35A10.24,10.24,0,0,1,129,220.7Z"/><path class="cls-4" d="M340.46,220.7H278.35a10.24,10.24,0,0,1-10.22-10.23V181.12a10.25,10.25,0,0,1,10.22-10.23h62.11a10.24,10.24,0,0,1,10.22,10.23v29.35A10.23,10.23,0,0,1,340.46,220.7Z"/><path class="cls-4" d="M340.46,144.92H278.35a10.25,10.25,0,0,1-10.22-10.23V105.34a10.24,10.24,0,0,1,10.22-10.23h62.11a10.23,10.23,0,0,1,10.22,10.23v29.35A10.24,10.24,0,0,1,340.46,144.92Z"/><circle class="cls-2" cx="98.1" cy="120.26" r="16.84"/><path class="cls-3" d="M96.43,126.68a1.74,1.74,0,0,1-1.05-.35h0l-4-3a1.76,1.76,0,0,1,2.13-2.8h0l2.57,2,6.06-7.9a1.75,1.75,0,0,1,2.46-.33h0l0,.06,0-.05a1.75,1.75,0,0,1,.33,2.46L97.83,126A1.74,1.74,0,0,1,96.43,126.68Z"/><circle class="cls-2" cx="204.06" cy="120.01" r="16.84"/><path class="cls-3" d="M202.39,126.44a1.72,1.72,0,0,1-1-.35l0,0-4-3a1.76,1.76,0,1,1,2.14-2.79h0l2.56,2,6.06-7.9a1.75,1.75,0,0,1,2.46-.33h0l0,.05,0-.05a1.77,1.77,0,0,1,.32,2.47l-7.12,9.29A1.77,1.77,0,0,1,202.39,126.44Z"/><path class="cls-2" d="M451.16,164.62a36.28,36.28,0,0,0-16.92,14.93.78.78,0,0,0,.41,1,.8.8,0,0,0,1-.42,34.43,34.43,0,0,1,16.08-14.08.78.78,0,0,0-.59-1.45Z"/><path class="cls-2" d="M464.9,132.4a42.8,42.8,0,0,1-32.35,2.9,40.62,40.62,0,0,1-8.58-3.8c-.87-.5-1.53.9-.67,1.41a44.29,44.29,0,0,0,33.39,4.36,41.77,41.77,0,0,0,9.1-3.6c.88-.47,0-1.74-.89-1.27Z"/><path class="cls-2" d="M453.1,93.5A36.27,36.27,0,0,0,445,114.57a.78.78,0,0,0,.84.71.8.8,0,0,0,.72-.84,34.46,34.46,0,0,1,7.69-19.94c.63-.77-.56-1.78-1.19-1Z"/></g></g></svg>