<svg xmlns="http://www.w3.org/2000/svg" viewBox="0 0 24 24"><defs><style>.cls-1{fill:none;}.cls-2{fill:#fff;}</style></defs><title>notification-icon-filled</title><g id="Layer_2" data-name="Layer 2"><g id="Layer_1-2" data-name="Layer 1"><path class="cls-1" d="M0,0H24V24H0Z"/><path class="cls-2" d="M12,5.5c-2.49,0-4,2-4,4.5v6h8V10C16,7.52,14.49,5.5,12,5.5Z"/><path class="cls-2" d="M12,21a2,2,0,0,0,2-2H10A2,2,0,0,0,12,21Z"/><path class="cls-2" d="M18,10c0-3.07-1.63-5.64-4.5-6.32V3a1.5,1.5,0,0,0-3,0v.68C7.64,4.36,6,6.92,6,10v5L4,17v1H20V17l-2-2Zm-2,6H8V10c0-2.48,1.51-4.5,4-4.5s4,2,4,4.5Z"/></g></g></svg>