<svg xmlns="http://www.w3.org/2000/svg" viewBox="0 0 394.57 257.8"><defs><style>.cls-1{fill:#bbedff;}.cls-2{fill:#1fbaff;}.cls-3{fill:#fff;}.cls-4{fill:#ffca61;}.cls-5{fill:#2f2e41;}</style></defs><title>pending-response-from-vendor-illustration</title><g id="Layer_2" data-name="Layer 2"><g id="Layer_1-2" data-name="Layer 1"><ellipse class="cls-1" cx="197.28" cy="248.62" rx="197.28" ry="9.18"/><circle class="cls-2" cx="175.68" cy="142.27" r="107.41"/><circle class="cls-3" cx="175.68" cy="142.27" r="98.52"/><circle class="cls-2" cx="175.33" cy="142.63" r="13.16"/><rect class="cls-2" x="172.48" y="48.73" width="5.69" height="10.67"/><rect class="cls-2" x="172.48" y="225.86" width="5.69" height="10.67"/><rect class="cls-2" x="81.43" y="139.78" width="10.67" height="5.69"/><polygon class="cls-2" points="171.53 148.34 176.4 137.22 237.34 170.97 171.53 148.34"/><rect class="cls-2" x="161.81" y="8.89" width="27.74" height="32.01"/><ellipse class="cls-2" cx="175.68" cy="8.89" rx="32.01" ry="8.89"/><path class="cls-4" d="M235.62,161.3l-1.78,2.49s-8.18,9.6-8.54,5,6-7.83,6-7.83l3.55-2.13Z"/><path class="cls-4" d="M286.24,169.7l1.49,2.67s5.18,11.51.85,9.85-4.48-8.81-4.48-8.81l-.41-4.13Z"/><circle class="cls-5" cx="278.24" cy="111.48" r="10.83"/><path class="cls-4" d="M277.23,200.42l1.42,9.25v2.85h8.18V209s.36-6.4-1.06-8.18S277.23,200.42,277.23,200.42Z"/><path class="cls-4" d="M262.65,200.42l1.42,9.25v2.85h8.18V209s.36-6.4-1.07-8.18S262.65,200.42,262.65,200.42Z"/><path class="cls-2" d="M268.15,126.14s-3.14,1.66-1,5.43,14.75,42.8,14.75,42.8l7.28-2.06-6.42-24.68-3.67-15.52Z"/><circle class="cls-4" cx="277.05" cy="114.53" r="8.18"/><path class="cls-4" d="M280.79,115.77l-1.07,16.72-7.47-5.34s2.49-10,1.78-10.67Z"/><path class="cls-2" d="M280.79,131.07l-8.05-6s-3.69-1.51-4.76.27-6.4,28.1-3.55,33.07c0,0,15.29,3.21,18.49,1.43l1.42-9.25s1.78-5.69-1.06-9.25Z"/><path class="cls-2" d="M270.12,125.73s-2.85-2.13-5.34,1.42-32.37,31.66-32.37,31.66l5,5.69L257,148.14l12.45-10Z"/><path class="cls-5" d="M283.1,159.7s-17.61-3.38-19.39-.89l-.35,3.91s-3.91,7.47-1.78,19.57.71,19.56.71,19.56,9.6-1.07,16.72,0,8.18,0,8.18,0Z"/><path class="cls-5" d="M287.54,211.09l-10.31.36,3.56,26.68s-2.85,11.38.35,12.09a35.74,35.74,0,0,0,6.76.71s3.2,3.2,6.76,2.85a20.15,20.15,0,0,0,6.76-2.14,2.21,2.21,0,0,0-1.78-2.84c-2.49-.71-9.25-2.85-10.67-10.32Z"/><path class="cls-5" d="M273,211.09l-10.31.36,3.55,26.68s-2.84,11.38.36,12.09a35.74,35.74,0,0,0,6.76.71s3.2,3.2,6.76,2.85a20,20,0,0,0,6.75-2.14,2.21,2.21,0,0,0-1.77-2.84c-2.49-.71-9.25-2.85-10.68-10.32Z"/><circle class="cls-5" cx="282.03" cy="100.08" r="4.48"/><ellipse class="cls-5" cx="276.98" cy="109.18" rx="7.47" ry="4.48"/></g></g></svg>