<svg xmlns="http://www.w3.org/2000/svg" viewBox="0 0 266.81 254.35"><defs><style>.cls-1{fill:#3fd4fc;}.cls-2{fill:#ffca61;}.cls-3{fill:#d1d3d4;}.cls-4{fill:#d0f4fc;}.cls-5{fill:#414242;}.cls-6{fill:#78dc65;}.cls-7{fill:none;stroke:#fff;stroke-linecap:round;stroke-linejoin:round;stroke-width:1.57px;}.cls-8{fill:#fff;}</style></defs><title>Asset 40</title><g id="Layer_2" data-name="Layer 2"><g id="Layer_1-2" data-name="Layer 1"><rect class="cls-1" width="266.81" height="254.35"/><path class="cls-2" d="M64.4,220.88s8.5-20,10.71-27.89,1.57-31.08,1.57-31.08l6.14-16.06s43.09-35,55.63-42.58,27.68-19.33,32.12-16.72,3.66,8.36-1.57,14.11c-2.15,2.35-5.05,4.82-6.83,7.4-1.45,2.11-3.26,8.73-1.52,11.08,2.08,2.81,7.47-1.27,10.37,1.49,1.53,1.46,1.44,4,.42,5.86s-2.75,3.14-4.34,4.56c-4.24,3.66-7.84,8.27-11.21,12.68s-1.47,11-1.19,16.19c.32,6.36,1.21,13.93-.58,20.15-2.88,9.92-19.73,22.19-27,28.47s-13.45,27.16-13.45,27.16Z"/><polygon class="cls-3" points="65.11 203.52 49.62 254.35 115.96 254.35 125.81 222.02 65.11 203.52"/><path class="cls-3" d="M139.45,187.65h-10.7a2.85,2.85,0,0,1-2.85-2.85v-4.09a2.85,2.85,0,0,1,2.85-2.86h10.7a2.85,2.85,0,0,1,2.85,2.86v4.09A2.86,2.86,0,0,1,139.45,187.65Zm-10.7-9a2.08,2.08,0,0,0-2.07,2.08v4.09a2.07,2.07,0,0,0,2.07,2.07h10.7a2.07,2.07,0,0,0,2.07-2.07v-4.09a2.09,2.09,0,0,0-2.07-2.08Z"/><path class="cls-4" d="M158,67.3h-9.2v.88a3.6,3.6,0,0,1-3.6,3.59H122.34a3.6,3.6,0,0,1-3.6-3.59V67.3h-9.19a7,7,0,0,0-7,7V181.8a7,7,0,0,0,7,7H158a7,7,0,0,0,7-7V74.31A7,7,0,0,0,158,67.3Z"/><path class="cls-5" d="M165,181.8a7,7,0,0,1-7,7H109.55a7,7,0,0,1-7-7V74.31a7,7,0,0,1,7-7h9.19v.88a3.6,3.6,0,0,0,3.6,3.59h22.85a3.6,3.6,0,0,0,3.6-3.59V67.3H158a7,7,0,0,1,7,7ZM158,65.08H109.55a9.23,9.23,0,0,0-9.22,9.23V181.8a9.22,9.22,0,0,0,9.22,9.23H158a9.23,9.23,0,0,0,9.22-9.23V74.31A9.24,9.24,0,0,0,158,65.08"/><path class="cls-2" d="M158.85,120.64a6.85,6.85,0,0,0,7.69,8.25,7.67,7.67,0,0,0,3.46-1.46,8,8,0,0,0,3.28-5.85c.22-3.77-3-7-6.66-7.5C163.16,113.65,159.53,117.48,158.85,120.64Z"/><path class="cls-2" d="M165.59,129.35a7.27,7.27,0,0,1-7.29-7.24,8.07,8.07,0,0,1,.16-1.55c.79-3.48,4.58-7.33,8.21-6.88a7.85,7.85,0,0,1,7,7.92,8.6,8.6,0,0,1-7.07,7.7A8.54,8.54,0,0,1,165.59,129.35Zm.5-14.89c-3,0-6.22,3.31-6.86,6.27h0a6.49,6.49,0,0,0,7.26,7.77,7.52,7.52,0,0,0,3.29-1.39,7.62,7.62,0,0,0,3.13-5.56c.2-3.4-2.69-6.65-6.31-7.1l-.51,0Z"/><path class="cls-2" d="M156.4,145.07a5.19,5.19,0,0,0-.72,4.44,6.11,6.11,0,0,0,1.64,2.28,8.76,8.76,0,0,0,7.05,2.67,10.65,10.65,0,0,0,4.32-2c2.27-1.57,4.45-3.54,5.2-6.18,1.09-3.83-1.68-9.4-6.17-8.87C164,137.89,158.37,142,156.4,145.07Z"/><path class="cls-2" d="M163.42,154.92a9.48,9.48,0,0,1-6.4-2.84,6.47,6.47,0,0,1-1.74-2.43,5.52,5.52,0,0,1,.79-4.79h0c2-3.14,7.74-7.33,11.56-7.84a5.43,5.43,0,0,1,4.87,2,8.37,8.37,0,0,1,1.73,7.34c-.65,2.35-2.35,4.35-5.35,6.4a11.06,11.06,0,0,1-4.49,2A8,8,0,0,1,163.42,154.92Zm-6.69-9.64a4.78,4.78,0,0,0-.68,4.1,5.8,5.8,0,0,0,1.57,2.13,8.22,8.22,0,0,0,6.7,2.55,10.54,10.54,0,0,0,4.15-1.9c2.83-1.95,4.44-3.85,5-6a7.55,7.55,0,0,0-1.56-6.62,4.7,4.7,0,0,0-4.18-1.75c-3.56.45-9.12,4.55-11,7.46Z"/><path class="cls-2" d="M158.68,161.06a7.35,7.35,0,0,0-2.14,2.3,6.29,6.29,0,0,0,.71,6.67,8.92,8.92,0,0,0,6.11,3.21,9.94,9.94,0,0,0,7.76-2.41,8.08,8.08,0,0,0,2.48-7.61C171.91,156,163.16,157.8,158.68,161.06Z"/><path class="cls-2" d="M164.5,173.69a7.91,7.91,0,0,1-1.19-.06,9.25,9.25,0,0,1-6.37-3.36,6.69,6.69,0,0,1-.73-7.09,7.48,7.48,0,0,1,2.25-2.43h0c3-2.2,7.94-3.75,11.48-2.43a6.4,6.4,0,0,1,4,4.82,8.42,8.42,0,0,1-2.59,8A10.23,10.23,0,0,1,164.5,173.69Zm-5.58-12.31a6.9,6.9,0,0,0-2,2.17,5.88,5.88,0,0,0,.67,6.27,8.44,8.44,0,0,0,5.84,3.05,9.56,9.56,0,0,0,7.47-2.3,7.62,7.62,0,0,0,2.35-7.22,5.62,5.62,0,0,0-3.54-4.27c-3.3-1.22-7.91.26-10.76,2.35Z"/><path class="cls-2" d="M76.79,163.36s.39-33.59,4.31-40.26,16.28-34.67,19.58-34.87,6.76,9.94,3.85,19a54.52,54.52,0,0,1-7.44,14.89s8,12.49,2.74,31.1"/><circle class="cls-6" cx="135.48" cy="127.72" r="15.28"/><polyline class="cls-7" points="142.92 123.41 134.3 132.03 130.38 128.11"/><polygon class="cls-5" points="63.74 208.02 49.62 254.35 115.96 254.35 124.44 226.52 63.74 208.02"/><circle class="cls-8" cx="67.19" cy="222.3" r="4.11"/></g></g></svg>