<svg xmlns="http://www.w3.org/2000/svg" viewBox="0 0 24 24"><defs><style>.cls-1{fill:none;}.cls-2{fill:#fff;}</style></defs><title>schedule-icon</title><g id="Layer_2" data-name="Layer 2"><g id="Layer_1-2" data-name="Layer 1"><path class="cls-1" d="M0,0H24V24H0Z"/><path class="cls-2" d="M12,2A10,10,0,1,0,22,12,10,10,0,0,0,12,2Zm0,18a8,8,0,1,1,8-8A8,8,0,0,1,12,20Z"/><path class="cls-2" d="M17.13,14.71l-4.38-2.6V7a.25.25,0,0,0-.25-.25H11a.25.25,0,0,0-.25.25v6a.24.24,0,0,0,.12.21l5.25,3.16a.31.31,0,0,0,.13,0,.24.24,0,0,0,.21-.12l.75-1.23a.22.22,0,0,0,0-.19A.22.22,0,0,0,17.13,14.71Z"/></g></g></svg>