<svg xmlns="http://www.w3.org/2000/svg" viewBox="0 0 24 24"><defs><style>.cls-1{fill:none;}.cls-2{fill:#fff;}</style></defs><title>schedule-icon-filled</title><g id="Layer_2" data-name="Layer 2"><g id="Layer_1-2" data-name="Layer 1"><path class="cls-1" d="M0,0H24V24H0Z"/><path class="cls-2" d="M12,2A10,10,0,1,0,22,12,10,10,0,0,0,12,2Zm5.22,13.05-.75,1.23a.24.24,0,0,1-.21.12.31.31,0,0,1-.13,0l-5.25-3.16a.24.24,0,0,1-.12-.21V7A.25.25,0,0,1,11,6.75h1.5a.25.25,0,0,1,.25.25v5.11l4.38,2.6a.22.22,0,0,1,.11.15A.22.22,0,0,1,17.21,15.05Z"/></g></g></svg>