<svg xmlns="http://www.w3.org/2000/svg" viewBox="0 0 110.79 179.38"><defs><style>.cls-1{fill:#3fd4fc;}.cls-2{fill:#fff;}</style></defs><title>Asset 53</title><g id="Layer_2" data-name="Layer 2"><g id="Layer_1-2" data-name="Layer 1"><path class="cls-1" d="M55.32,179.38c-1.14-2.06-2-3.58-2.82-5.16Q29.1,127.06,5.75,79.87A55.33,55.33,0,0,1,89.21,11.59c20.34,15.65,27.5,43.75,16.3,66.9-15.93,32.94-32.39,65.63-48.64,98.43C56.53,177.6,56.06,178.22,55.32,179.38Zm21-100.45c0-4.73.11-8.88,0-13-.16-4.82-2.61-7.52-7.43-7.62-9-.2-18-.15-27,0-4.19.06-7.09,2.27-7.38,6.61-.3,4.59-.07,9.22-.07,14.05ZM55.49,23.8A13.82,13.82,0,0,0,41.4,37.51a14,14,0,1,0,27.92.27A13.84,13.84,0,0,0,55.49,23.8Z"/><path class="cls-2" d="M55.53,23.8a13.84,13.84,0,0,1,13.83,14,14,14,0,1,1-27.92-.27A13.82,13.82,0,0,1,55.53,23.8Z"/><rect class="cls-2" x="33.9" y="54.98" width="43" height="51" rx="10.5" ry="10.5"/><path class="cls-1" d="M51.71,91.15a6.12,6.12,0,0,1-2.64-2.08,5.3,5.3,0,0,1-1-3.15h3.66a3.3,3.3,0,0,0,1.06,2.22,3.79,3.79,0,0,0,2.66.87,4.09,4.09,0,0,0,2.76-.86,2.76,2.76,0,0,0,1-2.2,2.41,2.41,0,0,0-.62-1.71,4.11,4.11,0,0,0-1.53-1,22.93,22.93,0,0,0-2.53-.78,23.92,23.92,0,0,1-3.32-1.09,5.57,5.57,0,0,1-2.17-1.73,5,5,0,0,1-.9-3.12,5.55,5.55,0,0,1,.9-3.15,5.75,5.75,0,0,1,2.52-2.07,9.16,9.16,0,0,1,3.75-.72,7.86,7.86,0,0,1,5,1.51,5.62,5.62,0,0,1,2.15,4.16H58.67a2.74,2.74,0,0,0-1.08-2A4,4,0,0,0,55,73.47a3.7,3.7,0,0,0-2.4.75,2.61,2.61,0,0,0-.93,2.16A2.2,2.2,0,0,0,52.23,78a4.14,4.14,0,0,0,1.49,1,23.05,23.05,0,0,0,2.46.78,25.58,25.58,0,0,1,3.37,1.14,5.61,5.61,0,0,1,2.22,1.75,5.06,5.06,0,0,1,.92,3.17,5.7,5.7,0,0,1-.86,3A6.18,6.18,0,0,1,59.34,91a8.31,8.31,0,0,1-3.85.85A9.34,9.34,0,0,1,51.71,91.15Z"/></g></g></svg>