<svg xmlns="http://www.w3.org/2000/svg" viewBox="0 0 676 370.69"><defs><style>.cls-1{fill:#5fd9f9;}.cls-2{fill:#1fbaff;}.cls-3{fill:#fff;}.cls-4{fill:#3fd4fc;}.cls-5{fill:#039add;}.cls-6{fill:#38b3f9;}.cls-7{fill:#3f3d56;}.cls-8{fill:#ffca61;}.cls-9{fill:#2f2e41;}.cls-10{fill:#d4f6ff;}.cls-11{fill:#231f20;opacity:0.2;isolation:isolate;}</style></defs><title>service-address-required</title><g id="Layer_2" data-name="Layer 2"><g id="Layer_1-2" data-name="Layer 1"><path class="cls-1" d="M364,342s-5,23,102,4,149-30,174-12,12,34.36,12,34.36H360Z"/><path class="cls-2" d="M597.38,355c-1.4,5.44-5.07,10-9.51,13.27-.73.54-1.47,1-2.22,1.51-.24.14-.47.29-.71.42l-.78.45H563.28c-.38-.79-.74-1.59-1.11-2.38-8.95-19.48-15.23-40.5-14.16-61.91a81.54,81.54,0,0,1,5-24.25c5.73-15.47,16.2-28.86,30.59-35.6l1.1-.5-.35,1.28a115,115,0,0,0-3.26,17.59c-.06.46-.11.92-.14,1.39A119.75,119.75,0,0,0,584.53,309l0,.1q1.23,4.61,2.85,9.07,1.27,3.52,2.77,6.95C594.37,334.69,600,344.89,597.38,355Z"/><path class="cls-3" d="M585,246.5l-.61.83a98.59,98.59,0,0,0-10.73,18.76c-.16.33-.3.66-.43,1a100.57,100.57,0,0,0-7.54,29.24.75.75,0,0,0,0,.21c-.24,2.36-.39,4.74-.45,7.12a44.06,44.06,0,0,0,1.38,13.24,24.1,24.1,0,0,0,5.27,9.42c.24.27.49.54.75.8s.4.42.6.62c2,1.93,4.09,3.72,5.92,5.79a21.48,21.48,0,0,1,2.27,3,15.34,15.34,0,0,1,1.54,12.1c-1.31,5.06-4.31,9.33-7.38,13.4-1.53,2-3.12,4.1-4.49,6.28-.5.78-1,1.57-1.39,2.38h-1.21a26.6,26.6,0,0,1,1.33-2.38c3.52-5.75,8.53-10.69,11.13-17,1.75-4.27,2.28-9.11.06-13.3a17.56,17.56,0,0,0-2.34-3.38c-1.77-2.07-3.88-3.84-5.8-5.71-.48-.47-1-.95-1.41-1.45a25.17,25.17,0,0,1-5.45-8.9,40.56,40.56,0,0,1-1.87-13.13c0-2.84.15-5.7.42-8.54,0-.36.06-.73.1-1.1a102.87,102.87,0,0,1,19-49.23c.19-.28.4-.55.6-.82C584.6,245.17,585.37,246,585,246.5Z"/><path class="cls-3" d="M565,297a14.66,14.66,0,0,1-11.92-14.66.53.53,0,1,1,1.06,0,13.58,13.58,0,0,0,11.12,13.61c.68.12.42,1.19-.26,1.07Z"/><path class="cls-3" d="M571.56,326.52a28.6,28.6,0,0,0,11.13-17.31c.14-.69,1.18-.42,1,.27a29.76,29.76,0,0,1-11.62,18c-.56.41-1.11-.55-.54-1Z"/><path class="cls-2" d="M657.37,285.17l-1,.82a108.53,108.53,0,0,0-12.83,12l-.91,1h0a117.08,117.08,0,0,0-21.88,36.14l0,.09,0,.08a116.79,116.79,0,0,0-4.86,16.42c-1.18,5.46-2.14,11.31-4,16.57-.28.81-.58,1.61-.91,2.38H568l.45-2.38a164.83,164.83,0,0,1,10.18-33.7q.23-.54.48-1.08a109.7,109.7,0,0,1,8.31-15.35h0a94.38,94.38,0,0,1,5.6-7.69,77.32,77.32,0,0,1,18.07-16.24l.13-.08c13.55-8.71,29.61-12.86,45-9.27h0Z"/><path class="cls-3" d="M657.32,285.7l-1,.29a93.63,93.63,0,0,0-19.47,8.27l-.92.53a95.2,95.2,0,0,0-23,18.59v0l-.23.25c-1.54,1.72-3,3.51-4.44,5.35a42.9,42.9,0,0,0-6.58,11.43,24.48,24.48,0,0,0-1.27,10.81c0,.37.08.73.13,1.1l.12.88c.64,4,1.74,8,1.43,12.12a15,15,0,0,1-5.8,10.63,23.16,23.16,0,0,1-3.55,2.34,35.48,35.48,0,0,1-5.57,2.38h-3.79l1.52-.45a46,46,0,0,0,5.34-1.93,27.29,27.29,0,0,0,2.9-1.48c3.88-2.31,7.11-5.85,7.78-10.58.59-4.14-.55-8.28-1.22-12.33-.12-.7-.22-1.39-.28-2.08a25.31,25.31,0,0,1,.82-10.46,39.35,39.35,0,0,1,6.14-11.66,81.38,81.38,0,0,1,5.29-6.55q.35-.41.72-.81a98.15,98.15,0,0,1,23.37-18.73h0a93.69,93.69,0,0,1,20.37-8.74h0l1-.29C657.82,284.42,658,285.51,657.32,285.7Z"/><path class="cls-3" d="M612.05,313.55a15.22,15.22,0,0,1-1-19.15.54.54,0,0,1,.87.65,14.09,14.09,0,0,0,1,17.81c.48.51-.36,1.2-.83.69Z"/><path class="cls-3" d="M600.12,341.23a27,27,0,0,0,19-6.87c.52-.47,1.18.39.67.86A28,28,0,0,1,600,342.33c-.68,0-.56-1.12.12-1.1Z"/><path class="cls-3" d="M636.69,294a8.07,8.07,0,0,0,6.65,4c.69,0,.57,1.11-.11,1.1a9,9,0,0,1-7.37-4.39.58.58,0,0,1,.08-.77A.52.52,0,0,1,636.69,294Z"/><path class="cls-4" d="M397.28,282.91l-1,.82a109.37,109.37,0,0,0-12.83,12c-.31.33-.62.67-.92,1h0a117.06,117.06,0,0,0-21.87,36.14l0,.09,0,.08a118.1,118.1,0,0,0-4.85,16.42c-1.18,5.46-2.15,11.31-4,16.57-.28.81-.59,1.61-.92,2.38H307.9c.14-.79.3-1.59.45-2.38a165,165,0,0,1,10.17-33.7c.16-.36.31-.72.49-1.08a109.22,109.22,0,0,1,8.31-15.35h0q2.61-4,5.6-7.69A77.32,77.32,0,0,1,351,292l.12-.08c13.55-8.71,29.62-12.86,45-9.27h0Z"/><path class="cls-3" d="M397.23,280.44l-1,.29A93.71,93.71,0,0,0,376.79,289l-.93.53a95.63,95.63,0,0,0-23,18.59v0a2.61,2.61,0,0,0-.23.25c-1.55,1.72-3,3.51-4.44,5.35a43.21,43.21,0,0,0-6.59,11.43A24.51,24.51,0,0,0,340.37,336c0,.37.08.73.12,1.1s.08.58.13.88c.64,4,1.74,8,1.43,12.12a15,15,0,0,1-5.8,10.63,22.53,22.53,0,0,1-3.56,2.34,34.46,34.46,0,0,1-5.56,2.38h-3.8l1.53-.45a44.66,44.66,0,0,0,5.33-1.93,24,24,0,0,0,2.9-1.48c3.88-2.31,7.11-5.85,7.79-10.58.59-4.14-.55-8.28-1.23-12.33-.11-.7-.22-1.39-.28-2.08a25.17,25.17,0,0,1,.83-10.46,39.44,39.44,0,0,1,6.13-11.66c1.66-2.27,3.42-4.46,5.29-6.55l.73-.81a97.76,97.76,0,0,1,23.37-18.73h0a94.1,94.1,0,0,1,20.36-8.74h0l1-.29C397.74,279.16,397.89,280.25,397.23,280.44Z"/><polygon class="cls-5" points="429.8 119.16 329.63 0 128.57 1.84 6.61 120.64 9.07 122.22 8.19 122.22 8.19 369.32 429.53 369.32 429.53 122.22 429.8 119.16"/><polygon class="cls-6" points="329.74 0.25 204.6 146.96 204.6 369.32 429.53 369.32 429.53 119.05 329.74 0.25"/><rect class="cls-3" x="294.89" y="246.35" width="45.94" height="40.6"/><rect class="cls-3" x="294.89" y="176.08" width="45.94" height="39.96"/><rect class="cls-3" x="90.75" y="235.58" width="45.94" height="40.6"/><rect class="cls-3" x="90.75" y="165.3" width="45.94" height="39.96"/><rect class="cls-7" y="368.36" width="676" height="2.15"/><path id="a0461f35-fb70-484f-9ae8-3da4bdd92c77" class="cls-8" d="M513.23,197.92a5.84,5.84,0,0,1-6.65-5.95l-19.3-7.42L496,178.3l17,8a5.85,5.85,0,0,1,.22,11.62Z"/><path id="b3dd0798-f166-43d4-ba9c-3d5fa2ca5126" class="cls-7" d="M502.2,192.59l3-10.63-.15-.1-28.23-19.18L452.43,138.2l-14.21,5.68.93,4.5.06.05,32.45,29.06,0,0Z"/><polygon class="cls-8" points="473.28 216.88 429.59 210.75 433.43 183.94 465.6 183.94 473.28 216.88"/><polygon class="cls-8" points="399.04 348.16 408 350.24 420.3 316.66 407.07 313.59 399.04 348.16"/><path class="cls-9" d="M390.7,362.59l6.43,1.49,2.56-5.8,1.52,6.75,17.05,4a3.94,3.94,0,0,0,3.8-6.48L410.63,350l1.43-6.14-14.52-2.47Z"/><polygon class="cls-8" points="454.34 353.15 463.55 353.15 467.92 317.66 454.34 317.66 454.34 353.15"/><path class="cls-9" d="M449.49,369.1h6.6l1.17-6.23,3,6.23h17.5a3.93,3.93,0,0,0,2.24-7.17l-14-9.66V346l-14.7.87Z"/><path class="cls-9" d="M429,206.2l42.73-3.39c12.6,29.45,4.59,76.47-5.1,129.4L452.92,334l-1.06-85.06L417.4,328.06l-14.32-.73Z"/><path id="a1ca5f83-7fa1-45b1-9d3b-bf096f25c0e5" class="cls-9" d="M453.91,128.64V114.19a19.37,19.37,0,1,0-38.74,0v0c-3.42,7.11-1.28,10.49,0,14.45a2.59,2.59,0,0,0,2.6,2.6h33.54A2.6,2.6,0,0,0,453.91,128.64Z"/><circle id="b14fd05a-a043-4ff7-820e-83dd0ca664c7" class="cls-8" cx="439.32" cy="116.82" r="14.2"/><path id="b50f9c05-1494-4f26-bcdb-96e0065c79e8" class="cls-9" d="M458.49,115.34A15.33,15.33,0,0,0,443.17,100h-2.89A15.34,15.34,0,0,0,425,115.34v.29c2.17,1.48,4.22,1.7,6.11,0l2.09-5.83.41,5.83h3.16l1.06-2.94.21,2.94c4.26,3.64,12.33,1.89,20.5,0Z"/><path id="a0eb6ff4-2fce-4112-9df9-8b4ebb5a5fd4" class="cls-10" d="M431,191.78l36.16-1.38,2-23.65c1.56-4.33,1.58-8.05.07-11.05a11.08,11.08,0,0,0-6.1-5.28l-7.92-9.56a10.79,10.79,0,0,0-8.36-3.89l-20.56.14c-.49-.3-3.5-1.83-9.43.74-6.42,2.79-4.93,12.47-4.92,12.56l0,.1.07.06,13.67,11.52Z"/><path class="cls-2" d="M595.82,150.19c-23.33,26.29-93.54,31.31-139.24,79.58-15.32-46.66,6.39-127.2,28-157.91a68,68,0,0,1,94.77-16.45C610.09,77,620.75,122.09,595.82,150.19Z"/><circle id="b262ea8c-1946-46c9-a449-3a1996c39394" class="cls-3" cx="539.28" cy="102.78" r="22.18"/><circle id="bcc29a3a-8123-4529-80aa-6f70df2823cf" class="cls-2" cx="437.83" cy="239.4" r="14.53"/><path id="b815393f-9135-439a-a427-8535fc5e4357" class="cls-8" d="M421.21,238.35a5.82,5.82,0,0,1-.44-8.22,5.51,5.51,0,0,1,.75-.7l-6.68-19.57,10.4,2.7L430,230.73a5.85,5.85,0,0,1-8.77,7.62Z"/><path id="b887ab11-b08b-42e6-a61f-ab0e88099db2" class="cls-10" d="M418.23,226.47l10.09-4.5-3.39-34.14,3.16-34.43-13.48-7.27-2.85,3.6v.08l-1.52,43.54v0Z"/><path class="cls-11" d="M585.71,61.9c18.21,23.54,21.35,57.38,1.17,80.12C564.34,167.43,498,173,452.37,216.85a94.67,94.67,0,0,0,3.28,13.51c45.7-48.27,115.9-53.29,139.24-79.58C617.74,125,610.69,85.05,585.71,61.9Z"/></g></g></svg>