<svg xmlns="http://www.w3.org/2000/svg" viewBox="0 0 320.01 268.4"><defs><style>.cls-1{fill:#bbedff;}.cls-2{fill:#ccf4ff;}.cls-3{fill:#fff;}.cls-4{fill:#1fbaff;}.cls-5{fill:#6c63ff;}.cls-6{fill:#2f2e41;}.cls-7{fill:#ffca61;}.cls-8{fill:#3f3d56;}</style></defs><title>waiting-for-service-illustration</title><g id="Layer_2" data-name="Layer 2"><g id="Layer_1-2" data-name="Layer 1"><ellipse class="cls-1" cx="160" cy="259.22" rx="160" ry="9.18"/><rect class="cls-2" x="12" y="21.01" width="286.84" height="178.62"/><rect class="cls-3" x="31.24" y="55.42" width="52.54" height="34.15"/><rect class="cls-3" x="96.51" y="55.42" width="52.54" height="34.15"/><rect class="cls-3" x="161.79" y="55.42" width="52.54" height="34.15"/><rect class="cls-3" x="227.07" y="55.42" width="52.54" height="34.15"/><rect class="cls-3" x="31.24" y="103.76" width="52.54" height="34.15"/><rect class="cls-3" x="96.51" y="103.76" width="52.54" height="34.15"/><rect class="cls-3" x="161.79" y="103.76" width="52.54" height="34.15"/><rect class="cls-3" x="227.07" y="103.76" width="52.54" height="34.15"/><rect class="cls-3" x="31.24" y="152.09" width="52.54" height="34.15"/><rect class="cls-3" x="96.51" y="152.09" width="52.54" height="34.15"/><rect class="cls-3" x="161.79" y="152.09" width="52.54" height="34.15"/><rect class="cls-3" x="227.07" y="152.09" width="52.54" height="34.15"/><circle class="cls-3" cx="87.13" cy="34.15" r="7.88"/><circle class="cls-3" cx="217.41" cy="34.15" r="7.88"/><rect class="cls-4" x="83.97" width="6.3" height="36.25"/><rect class="cls-4" x="214.26" width="6.3" height="36.25"/><path class="cls-4" d="M265.22,72.5a11.85,11.85,0,1,1-1.84-6.35A11.84,11.84,0,0,1,265.22,72.5Z"/><path class="cls-3" d="M263.38,66.15,251.69,77.84c-.73-1.13-4.83-6.42-4.83-6.42a16.78,16.78,0,0,1,1.68-1.48l3.39,4.53L262,64.38A11.63,11.63,0,0,1,263.38,66.15Z"/><path class="cls-5" d="M134.66,120.83a11.84,11.84,0,1,1-1.83-6.34A11.85,11.85,0,0,1,134.66,120.83Z"/><path class="cls-3" d="M132.83,114.49l-11.7,11.69c-.73-1.14-4.83-6.43-4.83-6.43a18.14,18.14,0,0,1,1.68-1.48l3.39,4.53,10.09-10.08A11.3,11.3,0,0,1,132.83,114.49Z"/><path class="cls-4" d="M69.38,120.83a11.84,11.84,0,1,1-1.83-6.34A11.85,11.85,0,0,1,69.38,120.83Z"/><path class="cls-3" d="M67.55,114.49l-11.7,11.69C55.12,125,51,119.75,51,119.75a18.14,18.14,0,0,1,1.68-1.48l3.39,4.53,10.09-10.08A11.3,11.3,0,0,1,67.55,114.49Z"/><path class="cls-6" d="M138.77,91.33V81a16.43,16.43,0,0,1,32.86,0v10.3a2.21,2.21,0,0,1-2.21,2.2H141A2.21,2.21,0,0,1,138.77,91.33Z"/><rect class="cls-7" x="151" y="89.6" width="8" height="14" rx="4" ry="4"/><path class="cls-7" d="M180.08,173.58a4.49,4.49,0,0,1,.32-6.34,4.19,4.19,0,0,1,.63-.48l-3.56-15.53,7.76,2.9,2.19,14.31a4.51,4.51,0,0,1-7.34,5.14Z"/><path class="cls-8" d="M179.55,161.25l-6.82-13.19.92-33.2.44.93c.51,1.07,12.47,26.4,11.62,34.88l1.37,7.75Z"/><polygon class="cls-7" points="175.1 258.68 180.57 258.68 183.17 237.59 175.1 237.59 175.1 258.68"/><path class="cls-6" d="M173.7,256.9h10.77a6.87,6.87,0,0,1,6.87,6.86V264H173.71Z"/><polygon class="cls-7" points="121.07 254.53 126.34 255.99 134.5 236.37 126.72 234.21 121.07 254.53"/><path class="cls-6" d="M120.21,252.43l10.37,2.89h0a6.86,6.86,0,0,1,4.77,8.45l-.06.21-17-4.72Z"/><path class="cls-6" d="M169.65,250.46l-11-79L134.78,250,116,243.61l26.87-105.2.17,0,28.14-1.95,20.33,107.63Z"/><path class="cls-4" d="M166.73,101.17a41.89,41.89,0,0,0-24.09-3.12s-7.36,17.76,0,24.82l2,17.78s18.73,11.15,25-1.79l-.89-14.72s4.46-7.06.89-12.22A17.09,17.09,0,0,1,166.73,101.17Z"/><path class="cls-8" d="M168,182l1.8-37.36-5.1-44.45.24,0c6.68-1,8.83,10.5,8.91,11L185.52,177Z"/><path class="cls-8" d="M145.34,182.4l-20.56-2.29v-.22c.07-3,1.84-74.64,6.8-79.71s14.41-2.9,14.81-2.8l.2.05-1.69,30.29Z"/><path class="cls-7" d="M149.13,139.61a4.49,4.49,0,0,1-5.66-2.86,5.36,5.36,0,0,1-.18-.77l-15.64-3.07,5.81-5.91,14,3.82a4.51,4.51,0,0,1,1.71,8.79Z"/><path class="cls-8" d="M140.79,136l-5.1-1.09c-7.52,2.26-20.66-5.71-26-9.25-1-.66-1.33-2-1-3.92a11.46,11.46,0,0,1,4.2-6.82l18.7-14.82,4.72-.79,1.4,7.94-11.91,12.79,17.53,9.55Z"/><circle class="cls-7" cx="154.54" cy="81.39" r="12.04"/><path class="cls-6" d="M142.16,81.34a1.23,1.23,0,0,1-.28-1l1.42-9.93a1.22,1.22,0,0,1,.7-.94,24.86,24.86,0,0,1,21.95,0,1.25,1.25,0,0,1,.7,1l.95,10a1.24,1.24,0,0,1-1.1,1.34H164a1.24,1.24,0,0,1-1.11-.7l-1-2.24a.74.74,0,0,0-1.4.22l-.2,1.65A1.23,1.23,0,0,1,159,81.76h-15.9A1.23,1.23,0,0,1,142.16,81.34Z"/></g></g></svg>