<svg xmlns="http://www.w3.org/2000/svg" viewBox="0 0 48 48"><defs><style>.cls-1{fill:none;}.cls-2{fill:#fff;}</style></defs><title>category-car</title><g id="Layer_2" data-name="Layer 2"><g id="Layer_1-2" data-name="Layer 1"><g id="Layer_2-2" data-name="Layer 2"><g id="Layer_1-2-2" data-name="Layer 1-2"><path class="cls-1" d="M0,0H48V48H0Z"/><path class="cls-2" d="M39.6,19.8l-4.3-10a2.3,2.3,0,0,0-2.2-1.4H14.9a2.4,2.4,0,0,0-2.2,1.4l-4.3,10a5.48,5.48,0,0,0-3.2,5V31a2.26,2.26,0,0,0,2.3,2.3h.8v4a2.35,2.35,0,0,0,2.4,2.3h3.1a2.33,2.33,0,0,0,2.3-2.3V33.4H31.7v3.9a2.35,2.35,0,0,0,2.4,2.3h3.1a2.33,2.33,0,0,0,2.3-2.3V33.4h.8A2.35,2.35,0,0,0,42.6,31h0V24.8A5.05,5.05,0,0,0,39.6,19.8ZM14.1,10.4a.75.75,0,0,1,.7-.5H33.1a.75.75,0,0,1,.7.5l3.8,8.9H10.3Zm.5,26.9a.86.86,0,0,1-.8.8H10.7a.86.86,0,0,1-.8-.8h0V33.4h4.7Zm22.7.8H34.2a.86.86,0,0,1-.8-.8h0V33.4h4.7v3.9h0A.86.86,0,0,1,37.3,38.1Zm3.1-6.3H7.6a.79.79,0,0,1-.8-.8V24.7a3.84,3.84,0,0,1,3.9-3.9H37.3a3.9,3.9,0,0,1,3.9,3.9V31h0a.79.79,0,0,1-.8.8Z"/><path class="cls-2" d="M12.3,22.4a3.9,3.9,0,0,0-3.9,3.9,4,4,0,0,0,3.9,3.9,4,4,0,0,0,3.9-3.9h0A4,4,0,0,0,12.3,22.4Zm0,6.3A2.35,2.35,0,0,1,10,26.3,2.26,2.26,0,0,1,12.3,24a2.35,2.35,0,0,1,0,4.7Z"/><path class="cls-2" d="M35.7,22.4a3.9,3.9,0,0,0-3.9,3.9,4,4,0,0,0,3.9,3.9,3.9,3.9,0,0,0,3.9-3.9h0A3.84,3.84,0,0,0,35.7,22.4Zm0,6.3a2.42,2.42,0,0,1-2.4-2.3A2.49,2.49,0,0,1,35.6,24,2.42,2.42,0,0,1,38,26.3h0A2.29,2.29,0,0,1,35.7,28.7Z"/><path class="cls-2" d="M29.5,27.1h-11a.8.8,0,0,0,0,1.6h11a1,1,0,0,0,.9-.7,1,1,0,0,0-.7-.9Z"/><path class="cls-2" d="M29.5,24h-11a1,1,0,0,0-.9.7,1,1,0,0,0,.7.9H29.5a1,1,0,0,0,.9-.7,1,1,0,0,0-.7-.9Z"/></g></g></g></g></svg>