<svg xmlns="http://www.w3.org/2000/svg" viewBox="0 0 48 48"><defs><style>.cls-1,.cls-2,.cls-3{fill:none;}.cls-2,.cls-3{stroke:#fff;stroke-linecap:round;stroke-linejoin:round;}.cls-2{stroke-width:0.75px;}.cls-3{stroke-width:1.5px;}.cls-4{fill:#fff;}</style></defs><title>category-personalCare</title><g id="Layer_2" data-name="Layer 2"><g id="Layer_1-2" data-name="Layer 1"><g id="Layer_2-2" data-name="Layer 2"><g id="Layer_1-2-2" data-name="Layer 1-2"><path class="cls-1" d="M0,0H48V48H0Z"/><circle class="cls-2" cx="7.3" cy="38.4" r="1.7"/><circle class="cls-2" cx="38.4" cy="33.1" r="1.7"/><line class="cls-2" x1="38.9" y1="39.8" x2="40.6" y2="39.8"/><line class="cls-2" x1="39.8" y1="39" x2="39.8" y2="40.6"/><line class="cls-2" x1="8.7" y1="32" x2="10.4" y2="32"/><line class="cls-2" x1="9.5" y1="31.2" x2="9.5" y2="32.8"/><path class="cls-3" d="M13,26.5a14.28,14.28,0,0,1,11.6-6.1,11.41,11.41,0,0,1,10.5,6.1s5-8.3-2.2-12.2c0,0-.6-7.8-9.4-7.8s-10,10-10,10S8,22.6,13,26.5Z"/><path class="cls-3" d="M33.7,34.4a14.46,14.46,0,0,0,.4-2.9s4.9-2.9,1.1-5.1"/><path class="cls-3" d="M28.3,41.2a10.13,10.13,0,0,1-4.2.8,12.09,12.09,0,0,1-3.8-.6"/><path class="cls-3" d="M12.3,25.8s-3.7,3.5.8,5.1a16.2,16.2,0,0,0,1.2,4.3"/><path class="cls-3" d="M33.7,34.4c-.2-.1-.5-.1-.7-.2a1.61,1.61,0,0,0,.2-2.3,2.18,2.18,0,0,0-.8-.5c-2.2-1.1-3.3,2.2-3.3,2.2A2.48,2.48,0,0,0,28,37.5a2.77,2.77,0,0,0,.3,3.7"/><path class="cls-3" d="M33.7,34.4c.6.3,1.3.9,1,2.6-.5,2.8-2.2,2.2-2.2,2.2s-1.7,3.9-3.9,2.2l-.3-.2"/><path class="cls-3" d="M14.2,35.2a3.67,3.67,0,0,0-.1,1.8c.6,2.8,2.2,2.2,2.2,2.2s1.7,3.9,3.9,2.2l.1-.1"/><path class="cls-3" d="M14.2,35.2a1.78,1.78,0,0,1,1.6-1,1.61,1.61,0,0,1-.2-2.3,2.18,2.18,0,0,1,.8-.5c2.2-1.1,3.3,2.2,3.3,2.2a2.48,2.48,0,0,1,1.1,3.9,2.71,2.71,0,0,1-.5,3.8"/><circle class="cls-4" cx="18.6" cy="27.6" r="1.1"/><circle class="cls-4" cx="29.7" cy="27.6" r="1.1"/><path class="cls-3" d="M13.6,16.5s-1.1-.6,7.8-3.3,8.3-4.9,8.3-4.9"/><path class="cls-3" d="M25.3,20.4A9.89,9.89,0,0,0,33,14.3"/></g></g></g></g></svg>