<svg xmlns="http://www.w3.org/2000/svg" viewBox="0 0 48 48"><defs><style>.cls-1,.cls-2{fill:none;}.cls-2{stroke:#fff;stroke-miterlimit:10;stroke-width:2px;}.cls-3{fill:#fff;}</style></defs><title>category-event</title><g id="Layer_2" data-name="Layer 2"><g id="Layer_1-2" data-name="Layer 1"><g id="Layer_2-2" data-name="Layer 2"><g id="Layer_1-2-2" data-name="Layer 1-2"><path class="cls-1" d="M0,0H48V48H0Z"/><path class="cls-2" d="M37.8,42H10.2A2.22,2.22,0,0,1,8,39.8V12.2A2.22,2.22,0,0,1,10.2,10H37.9a2.22,2.22,0,0,1,2.2,2.2V39.9A2.37,2.37,0,0,1,37.8,42Z"/><line class="cls-2" x1="8" y1="17.9" x2="40" y2="17.9"/><line class="cls-2" x1="14" y1="4.5" x2="14" y2="9.5"/><line class="cls-2" x1="34" y1="5" x2="34" y2="10"/><path class="cls-3" d="M25.3,26h7.5a1.32,1.32,0,0,1,1.3,1.3v7.5a1.32,1.32,0,0,1-1.3,1.3H25.3A1.32,1.32,0,0,1,24,34.8V27.3A1.32,1.32,0,0,1,25.3,26Z"/></g></g></g></g></svg>