<svg xmlns="http://www.w3.org/2000/svg" viewBox="0 0 48 48"><defs><style>.cls-1,.cls-3{fill:none;}.cls-2{fill:#fff;}.cls-3{stroke:#fff;stroke-miterlimit:10;stroke-width:2px;}</style></defs><title>category-maintenance</title><g id="Layer_2" data-name="Layer 2"><g id="Layer_1-2" data-name="Layer 1"><g id="Layer_2-2" data-name="Layer 2"><g id="Layer_1-2-2" data-name="Layer 1-2"><path class="cls-1" d="M0,0H48V48H0Z"/><rect class="cls-2" x="39.88" y="10.43" width="2.2" height="6.3" transform="translate(2.4 32.95) rotate(-45)"/><path class="cls-2" d="M40.8,8.3a2.65,2.65,0,0,0,2.6-2.6,2.66,2.66,0,0,0-.3-1.2l-2,2L40,5.4l2-2a2.59,2.59,0,0,0-3.8,2.3h0a2.92,2.92,0,0,0,.2.9L37,8,35.7,6.6l.5-.5-1-1,1.5-1.6a2.12,2.12,0,0,0-3.1,0h0L31,6.1l1,1H29.9l-.5.5L32,10.3l.5-.5V7.7l1,1,.5-.5,1.3,1.3L29.9,15l1.6,1.6,8.4-8.4A2.77,2.77,0,0,0,40.8,8.3Z"/><path class="cls-3" d="M27,39.1v2h7V23.3l-.2-.1L22,15.1,10.2,23.2l-.2.1V41.2h7V29.6H27Z"/></g></g></g></g></svg>