<svg xmlns="http://www.w3.org/2000/svg" viewBox="0 0 48 48"><defs><style>.cls-1{fill:none;}.cls-2,.cls-3{fill:#fff;}.cls-3{stroke:#fff;stroke-miterlimit:10;stroke-width:0.81px;}</style></defs><title>category-deviceRepair</title><g id="Layer_2" data-name="Layer 2"><g id="Layer_1-2" data-name="Layer 1"><g id="Layer_2-2" data-name="Layer 2"><g id="Layer_1-2-2" data-name="Layer 1-2"><path class="cls-1" d="M0,0H48V48H0Z"/><rect class="cls-2" x="26.31" y="22.73" width="1.8" height="5.1" transform="translate(-9.91 26.64) rotate(-45)"/><path class="cls-2" d="M27,21a2.05,2.05,0,0,0,2.1-2.1,1.93,1.93,0,0,0-.3-1l-1.6,1.6-.9-.9L28,17a1.93,1.93,0,0,0-1-.3,2.05,2.05,0,0,0-2.1,2.1,1.7,1.7,0,0,0,.1.7l-1.1,1.1-1.1-1.1.4-.4-.9-.9,1.3-1.3a1.75,1.75,0,0,0-2.5,0L19,19.2l.8.9H18.1l-.4.4,2.1,2.1.4-.4V20.5l.9.9.4-.4,1.1,1.1-4.4,4.5,1.3,1.3,6.8-6.8A1.7,1.7,0,0,1,27,21Z"/><g id="icon"><path class="cls-3" d="M40.9,10.3H7.1A1.11,1.11,0,0,0,6,11.4V32.5a1.11,1.11,0,0,0,1.1,1.1H21.9v2.9H18.5a.6.6,0,0,0,0,1.2H29.6a.6.6,0,0,0,0-1.2H26.2V33.6H41a1.11,1.11,0,0,0,1.1-1.1V11.4A1.28,1.28,0,0,0,40.9,10.3Zm-.1,22.1H7.2V11.5H40.8Z"/></g></g></g></g></g></svg>