<svg xmlns="http://www.w3.org/2000/svg" viewBox="0 0 48 48"><defs><style>.cls-1{fill:none;}.cls-2{fill:#fff;stroke:#fff;stroke-miterlimit:10;stroke-width:0.24px;}</style></defs><title>category-healthCare</title><g id="Layer_2" data-name="Layer 2"><g id="Layer_1-2" data-name="Layer 1"><g id="Layer_2-2" data-name="Layer 2"><g id="Layer_1-2-2" data-name="Layer 1-2"><path class="cls-1" d="M0,0H48V48H0Z"/><path class="cls-2" d="M42.7,23.4H39.4a10.29,10.29,0,0,0,.7-7.3,8.67,8.67,0,0,0-8.3-6.3,9.22,9.22,0,0,0-3.6.7,15.9,15.9,0,0,0-4.1,2.1,16.52,16.52,0,0,0-4.2-2.1,14.36,14.36,0,0,0-3.6-.7A8.79,8.79,0,0,0,8,16.1a10.61,10.61,0,0,0,1,8H5a.58.58,0,0,0-.6.6h0a.58.58,0,0,0,.6.6H9.8a3.59,3.59,0,0,0,.7,1c3.8,5.5,12.2,11.5,13.7,11.9h.2c1.3-.6,9.3-5.8,13.5-11.9a9.5,9.5,0,0,0,1-1.7h3.9a.56.56,0,0,0,.6-.5V24a.67.67,0,0,0-.7-.6Zm-5.9,2.2c-3.9,5.7-11.1,10.3-12.7,11.3-1.6-1-8.7-5.6-12.7-11.3l-.2-.3h5.4a.55.55,0,0,0,.5-.3l2.5-4.9,3.9,10a.68.68,0,0,0,.6.4h0a.68.68,0,0,0,.6-.4l3.4-11.6,1.8,5.9a.66.66,0,0,0,.5.4.71.71,0,0,0,.6-.3l1.4-2.1,1.2,2.1a.55.55,0,0,0,.5.3h3.3A8,8,0,0,1,36.8,25.6Zm1.4-2.2H34.6L33,20.8a.57.57,0,0,0-1,0l-1.3,1.9-2-6.6a.65.65,0,0,0-1.2,0L24.1,27.9l-3.7-9.5a.63.63,0,0,0-.8-.3c-.1.1-.3.2-.3.3L16.4,24H10.5a10.14,10.14,0,0,1-1.2-7.6A7.41,7.41,0,0,1,16.5,11a8.66,8.66,0,0,1,3.2.6,16.52,16.52,0,0,1,4.2,2.1.48.48,0,0,0,.7,0,16.52,16.52,0,0,1,4.2-2.1A8.66,8.66,0,0,1,32,11a7.59,7.59,0,0,1,7.2,5.4A11.2,11.2,0,0,1,38.2,23.4Z"/></g></g></g></g></svg>