<svg xmlns="http://www.w3.org/2000/svg" viewBox="0 0 48 48"><defs><style>.cls-1{fill:none;}.cls-2{fill:#fff;}</style></defs><title>category-petCare</title><g id="Layer_2" data-name="Layer 2"><g id="Layer_1-2" data-name="Layer 1"><g id="Layer_2-2" data-name="Layer 2"><g id="Layer_1-2-2" data-name="Layer 1-2"><path class="cls-1" d="M0,0H48V48H0Z"/><path class="cls-2" d="M32.9,26.6c-2.5-3-5.7-4.7-8.9-4.7s-6.4,1.7-8.9,4.7a14.9,14.9,0,0,0-3.6,9.2,4,4,0,0,0,1.3,3.3,5,5,0,0,0,3.3,1,22.17,22.17,0,0,0,4.4-.6A21.08,21.08,0,0,1,24,39a16.45,16.45,0,0,1,3.2.5c2.9.5,6.1,1.1,8-.4a4.1,4.1,0,0,0,1.3-3.3A14.34,14.34,0,0,0,32.9,26.6Zm.9,10.8c-1.1.9-3.9.4-6.2,0a14.87,14.87,0,0,0-3.6-.5,26,26,0,0,0-3.9.5c-2.2.4-4.9.9-5.9,0a2.06,2.06,0,0,1-.6-1.7,12.52,12.52,0,0,1,3.1-7.8C18.8,25.4,21.4,24,24,24s5.2,1.4,7.3,3.9a12.52,12.52,0,0,1,3.1,7.8C34.4,37,33.9,37.3,33.8,37.4Z"/><path class="cls-2" d="M33.2,10.1A4.2,4.2,0,0,0,29.6,8,4.69,4.69,0,0,0,26,10.1a8.45,8.45,0,0,0-1.3,4.6A8.45,8.45,0,0,0,26,19.3a4.2,4.2,0,0,0,3.6,2.1,4.69,4.69,0,0,0,3.6-2.1,8.45,8.45,0,0,0,1.3-4.6A8.45,8.45,0,0,0,33.2,10.1Zm-1.8,8a2.3,2.3,0,0,1-1.8,1.2,2.3,2.3,0,0,1-1.8-1.2,5.8,5.8,0,0,1-.9-3.4,6.65,6.65,0,0,1,.9-3.4,2.3,2.3,0,0,1,1.8-1.2,2.3,2.3,0,0,1,1.8,1.2,5.8,5.8,0,0,1,.9,3.4,6.65,6.65,0,0,1-.9,3.4Z"/><path class="cls-2" d="M22,10.1A4.2,4.2,0,0,0,18.4,8a4.69,4.69,0,0,0-3.6,2.1,8.45,8.45,0,0,0-1.3,4.6,8.45,8.45,0,0,0,1.3,4.6,4.2,4.2,0,0,0,3.6,2.1A4.69,4.69,0,0,0,22,19.3a8.45,8.45,0,0,0,1.3-4.6A8.45,8.45,0,0,0,22,10.1Zm-1.8,8a2.3,2.3,0,0,1-1.8,1.2,2.3,2.3,0,0,1-1.8-1.2,5.8,5.8,0,0,1-.9-3.4,6.65,6.65,0,0,1,.9-3.4,2.3,2.3,0,0,1,1.8-1.2,2.3,2.3,0,0,1,1.8,1.2,5.8,5.8,0,0,1,.9,3.4,5.8,5.8,0,0,1-.9,3.4Z"/><path class="cls-2" d="M42.5,20.7a3.84,3.84,0,0,0-2.2-2.6,3.19,3.19,0,0,0-2.7.2,6.07,6.07,0,0,0-2.8,3.3,6.68,6.68,0,0,0-.2,3.7,3.84,3.84,0,0,0,2.2,2.6,5,5,0,0,0,1.2.2,3.17,3.17,0,0,0,1.6-.4,6.07,6.07,0,0,0,2.8-3.3h0A7.73,7.73,0,0,0,42.5,20.7Zm-2.3,3a3.39,3.39,0,0,1-1.7,2,1.18,1.18,0,0,1-1,.1c-1-.4-1.3-2-.8-3.5a3.39,3.39,0,0,1,1.7-2,1.45,1.45,0,0,1,.7-.2.6.6,0,0,1,.4.1c.9.3,1.3,2,.7,3.5Z"/><path class="cls-2" d="M13.3,21.6a5.69,5.69,0,0,0-2.8-3.3,3.63,3.63,0,0,0-2.7-.2,3.84,3.84,0,0,0-2.2,2.6,5.88,5.88,0,0,0,.2,3.7h0a6.07,6.07,0,0,0,2.8,3.3,4.19,4.19,0,0,0,1.6.4,5,5,0,0,0,1.2-.2,3.64,3.64,0,0,0,2.2-2.6A6.71,6.71,0,0,0,13.3,21.6Zm-2.8,4.2a1.18,1.18,0,0,1-1-.1,3.39,3.39,0,0,1-1.7-2h0c-.5-1.5-.2-3.1.8-3.5a1.18,1.18,0,0,1,1,.1,3.39,3.39,0,0,1,1.7,2C11.8,23.8,11.4,25.5,10.5,25.8Z"/></g></g></g></g></svg>